<?xml version="1.0" encoding="utf-8"?>
<!-- Generator: Adobe Illustrator 16.0.0, SVG Export Plug-In . SVG Version: 6.00 Build 0)  -->
<!DOCTYPE svg PUBLIC "-//W3C//DTD SVG 1.1//EN" "http://www.w3.org/Graphics/SVG/1.1/DTD/svg11.dtd">
<svg version="1.1" xmlns="http://www.w3.org/2000/svg" xmlns:xlink="http://www.w3.org/1999/xlink" x="0px" y="0px" width="157px"
	 height="89px" viewBox="0 0 157 89" enable-background="new 0 0 157 89" xml:space="preserve">
<g id="Layer_1">
	<g>
		<path fill="#333333" d="M171.308,59.097h0.845v8.453h-0.845V59.097z"/>
		<path fill="#333333" d="M173.957,61.298h0.805v1.12c0.322-0.429,0.678-0.75,1.068-0.962c0.391-0.213,0.816-0.319,1.275-0.319
			c0.468,0,0.883,0.119,1.244,0.356c0.362,0.237,0.63,0.558,0.803,0.96c0.172,0.402,0.258,1.028,0.258,1.879v3.218h-0.805v-2.982
			c0-0.72-0.029-1.201-0.09-1.442c-0.092-0.414-0.271-0.725-0.535-0.934c-0.265-0.209-0.609-0.313-1.035-0.313
			c-0.486,0-0.922,0.161-1.308,0.482c-0.385,0.322-0.639,0.721-0.761,1.195c-0.077,0.311-0.115,0.878-0.115,1.701v2.293h-0.805
			V61.298z"/>
		<path fill="#333333" d="M181.836,58.977h0.804v2.321h1.276v0.695h-1.276v5.557h-0.804v-5.557h-1.098v-0.695h1.098V58.977z"/>
		<path fill="#333333" d="M190.386,65.476l0.679,0.356c-0.223,0.437-0.48,0.789-0.771,1.057c-0.291,0.269-0.619,0.473-0.983,0.612
			s-0.776,0.21-1.237,0.21c-1.02,0-1.816-0.334-2.393-1.003c-0.574-0.669-0.862-1.424-0.862-2.267c0-0.793,0.243-1.5,0.73-2.121
			c0.617-0.789,1.444-1.184,2.479-1.184c1.065,0,1.916,0.404,2.553,1.213c0.453,0.57,0.684,1.283,0.69,2.138h-5.626
			c0.016,0.726,0.248,1.321,0.697,1.785c0.448,0.465,1.002,0.697,1.662,0.697c0.318,0,0.628-0.056,0.93-0.166
			c0.301-0.111,0.557-0.258,0.768-0.441C189.912,66.18,190.141,65.884,190.386,65.476z M190.386,63.792
			c-0.107-0.43-0.264-0.772-0.469-1.029c-0.206-0.256-0.478-0.463-0.814-0.62s-0.692-0.235-1.064-0.235
			c-0.614,0-1.142,0.197-1.582,0.592c-0.322,0.287-0.565,0.718-0.73,1.293H190.386z"/>
		<path fill="#333333" d="M192.466,61.298h0.821v0.913c0.246-0.359,0.504-0.629,0.776-0.807c0.272-0.179,0.556-0.268,0.851-0.268
			c0.223,0,0.459,0.071,0.713,0.213l-0.42,0.678c-0.169-0.072-0.311-0.109-0.426-0.109c-0.268,0-0.526,0.11-0.775,0.331
			c-0.249,0.22-0.438,0.562-0.568,1.025c-0.1,0.356-0.15,1.076-0.15,2.161v2.114h-0.821V61.298z"/>
		<path fill="#333333" d="M196.311,61.298h0.805v1.12c0.321-0.429,0.678-0.75,1.068-0.962c0.391-0.213,0.816-0.319,1.275-0.319
			c0.467,0,0.883,0.119,1.244,0.356s0.629,0.558,0.802,0.96s0.259,1.028,0.259,1.879v3.218h-0.805v-2.982
			c0-0.72-0.03-1.201-0.09-1.442c-0.093-0.414-0.271-0.725-0.536-0.934s-0.609-0.313-1.034-0.313c-0.486,0-0.923,0.161-1.309,0.482
			c-0.385,0.322-0.639,0.721-0.761,1.195c-0.077,0.311-0.114,0.878-0.114,1.701v2.293h-0.805V61.298z"/>
		<path fill="#333333" d="M209.717,61.298v6.252h-0.793v-1.074c-0.338,0.409-0.716,0.718-1.135,0.925
			c-0.42,0.207-0.879,0.311-1.377,0.311c-0.885,0-1.641-0.321-2.268-0.963c-0.625-0.642-0.939-1.422-0.939-2.342
			c0-0.9,0.316-1.67,0.949-2.31c0.632-0.64,1.393-0.96,2.281-0.96c0.513,0,0.978,0.109,1.393,0.328
			c0.416,0.218,0.781,0.546,1.096,0.982v-1.149H209.717z M206.502,61.912c-0.448,0-0.861,0.11-1.24,0.33
			c-0.379,0.221-0.681,0.529-0.904,0.928c-0.224,0.397-0.336,0.818-0.336,1.263c0,0.439,0.113,0.86,0.339,1.263
			c0.226,0.401,0.528,0.715,0.909,0.938s0.789,0.336,1.227,0.336c0.439,0,0.856-0.111,1.25-0.333
			c0.395-0.223,0.697-0.522,0.91-0.901s0.318-0.806,0.318-1.28c0-0.723-0.238-1.327-0.715-1.813
			C207.784,62.155,207.197,61.912,206.502,61.912z"/>
		<path fill="#333333" d="M212.228,58.977h0.804v2.321h1.276v0.695h-1.276v5.557h-0.804v-5.557h-1.098v-0.695h1.098V58.977z"/>
		<path fill="#333333" d="M215.793,58.724c0.184,0,0.34,0.064,0.469,0.195c0.13,0.13,0.195,0.287,0.195,0.471
			c0,0.181-0.065,0.336-0.195,0.466c-0.129,0.13-0.285,0.195-0.469,0.195c-0.18,0-0.334-0.065-0.464-0.195s-0.194-0.285-0.194-0.466
			c0-0.184,0.064-0.341,0.194-0.471C215.459,58.788,215.613,58.724,215.793,58.724z M215.394,61.298h0.804v6.252h-0.804V61.298z"/>
		<path fill="#333333" d="M220.83,61.137c0.963,0,1.761,0.349,2.395,1.046c0.575,0.636,0.863,1.389,0.863,2.259
			c0,0.873-0.305,1.637-0.912,2.289c-0.609,0.653-1.391,0.98-2.346,0.98c-0.96,0-1.744-0.327-2.352-0.98
			c-0.609-0.652-0.913-1.416-0.913-2.289c0-0.866,0.288-1.617,0.864-2.253C219.063,61.487,219.862,61.137,220.83,61.137z
			 M220.826,61.924c-0.668,0-1.243,0.247-1.724,0.741c-0.481,0.494-0.722,1.092-0.722,1.793c0,0.452,0.11,0.874,0.33,1.265
			c0.219,0.391,0.514,0.692,0.887,0.905c0.373,0.212,0.783,0.318,1.229,0.318c0.446,0,0.855-0.106,1.229-0.318
			c0.373-0.213,0.669-0.515,0.889-0.905c0.219-0.391,0.328-0.813,0.328-1.265c0-0.701-0.241-1.299-0.724-1.793
			S221.492,61.924,220.826,61.924z"/>
		<path fill="#333333" d="M225.576,61.298h0.805v1.12c0.322-0.429,0.678-0.75,1.068-0.962c0.391-0.213,0.816-0.319,1.275-0.319
			c0.468,0,0.883,0.119,1.244,0.356c0.362,0.237,0.63,0.558,0.803,0.96c0.172,0.402,0.258,1.028,0.258,1.879v3.218h-0.805v-2.982
			c0-0.72-0.029-1.201-0.09-1.442c-0.092-0.414-0.271-0.725-0.535-0.934c-0.265-0.209-0.609-0.313-1.035-0.313
			c-0.486,0-0.922,0.161-1.308,0.482c-0.385,0.322-0.639,0.721-0.761,1.195c-0.077,0.311-0.115,0.878-0.115,1.701v2.293h-0.805
			V61.298z"/>
		<path fill="#333333" d="M238.982,61.298v6.252h-0.793v-1.074c-0.337,0.409-0.715,0.718-1.135,0.925s-0.879,0.311-1.377,0.311
			c-0.885,0-1.641-0.321-2.267-0.963s-0.939-1.422-0.939-2.342c0-0.9,0.316-1.67,0.948-2.31c0.633-0.64,1.393-0.96,2.281-0.96
			c0.514,0,0.979,0.109,1.394,0.328c0.415,0.218,0.78,0.546,1.095,0.982v-1.149H238.982z M235.768,61.912
			c-0.447,0-0.861,0.11-1.24,0.33c-0.379,0.221-0.68,0.529-0.904,0.928c-0.223,0.397-0.336,0.818-0.336,1.263
			c0,0.439,0.113,0.86,0.34,1.263c0.225,0.401,0.528,0.715,0.909,0.938s0.789,0.336,1.226,0.336c0.439,0,0.857-0.111,1.251-0.333
			c0.394-0.223,0.697-0.522,0.91-0.901c0.212-0.379,0.318-0.806,0.318-1.28c0-0.723-0.238-1.327-0.715-1.813
			C237.051,62.155,236.464,61.912,235.768,61.912z"/>
		<path fill="#333333" d="M240.672,58.884h0.805v8.666h-0.805V58.884z"/>
		<path fill="#333333" d="M245.699,59.925v-0.828h4.633v0.828h-1.885v7.625h-0.863v-7.625H245.699z"/>
		<path fill="#333333" d="M256.682,65.476l0.678,0.356c-0.223,0.437-0.479,0.789-0.771,1.057c-0.291,0.269-0.619,0.473-0.982,0.612
			c-0.365,0.14-0.777,0.21-1.237,0.21c-1.021,0-1.817-0.334-2.393-1.003s-0.862-1.424-0.862-2.267c0-0.793,0.243-1.5,0.73-2.121
			c0.617-0.789,1.443-1.184,2.479-1.184c1.066,0,1.917,0.404,2.554,1.213c0.452,0.57,0.683,1.283,0.69,2.138h-5.626
			c0.015,0.726,0.247,1.321,0.696,1.785c0.449,0.465,1.003,0.697,1.662,0.697c0.318,0,0.629-0.056,0.93-0.166
			c0.301-0.111,0.557-0.258,0.768-0.441C256.207,66.18,256.436,65.884,256.682,65.476z M256.682,63.792
			c-0.107-0.43-0.264-0.772-0.469-1.029c-0.206-0.256-0.478-0.463-0.814-0.62c-0.338-0.157-0.693-0.235-1.064-0.235
			c-0.614,0-1.142,0.197-1.582,0.592c-0.322,0.287-0.566,0.718-0.73,1.293H256.682z"/>
		<path fill="#333333" d="M265.135,62.597l-0.639,0.396c-0.551-0.732-1.303-1.098-2.256-1.098c-0.762,0-1.393,0.245-1.896,0.734
			c-0.504,0.49-0.756,1.085-0.756,1.785c0,0.455,0.117,0.884,0.348,1.286c0.232,0.401,0.549,0.713,0.953,0.936
			c0.404,0.222,0.855,0.333,1.357,0.333c0.918,0,1.668-0.366,2.25-1.098l0.639,0.419c-0.299,0.45-0.701,0.8-1.205,1.048
			s-1.076,0.372-1.721,0.372c-0.988,0-1.809-0.314-2.459-0.942c-0.652-0.629-0.977-1.393-0.977-2.293
			c0-0.605,0.152-1.168,0.457-1.687c0.305-0.52,0.723-0.925,1.254-1.216c0.533-0.291,1.129-0.437,1.787-0.437
			c0.414,0,0.814,0.063,1.199,0.189c0.385,0.127,0.711,0.291,0.98,0.494C264.719,62.023,264.947,62.282,265.135,62.597z"/>
		<path fill="#333333" d="M266.68,58.884h0.805v3.534c0.326-0.429,0.684-0.75,1.074-0.962c0.391-0.213,0.814-0.319,1.271-0.319
			c0.467,0,0.881,0.119,1.244,0.356c0.361,0.237,0.629,0.557,0.801,0.957s0.258,1.027,0.258,1.882v3.218h-0.805v-2.982
			c0-0.72-0.027-1.201-0.086-1.442c-0.1-0.414-0.279-0.725-0.543-0.934c-0.262-0.209-0.605-0.313-1.031-0.313
			c-0.486,0-0.922,0.161-1.307,0.482c-0.385,0.322-0.639,0.721-0.762,1.195c-0.076,0.307-0.115,0.874-0.115,1.701v2.293h-0.805
			V58.884z"/>
		<path fill="#333333" d="M273.857,61.298h0.805v1.12c0.322-0.429,0.678-0.75,1.068-0.962c0.391-0.213,0.816-0.319,1.277-0.319
			c0.467,0,0.881,0.119,1.244,0.356c0.361,0.237,0.629,0.558,0.801,0.96s0.258,1.028,0.258,1.879v3.218h-0.805v-2.982
			c0-0.72-0.029-1.201-0.088-1.442c-0.094-0.414-0.273-0.725-0.537-0.934s-0.609-0.313-1.035-0.313
			c-0.486,0-0.922,0.161-1.307,0.482c-0.385,0.322-0.639,0.721-0.762,1.195c-0.076,0.311-0.115,0.878-0.115,1.701v2.293h-0.805
			V61.298z"/>
		<path fill="#333333" d="M283.994,61.137c0.965,0,1.762,0.349,2.396,1.046c0.574,0.636,0.863,1.389,0.863,2.259
			c0,0.873-0.305,1.637-0.914,2.289c-0.607,0.653-1.389,0.98-2.346,0.98c-0.959,0-1.742-0.327-2.352-0.98
			c-0.607-0.652-0.912-1.416-0.912-2.289c0-0.866,0.289-1.617,0.863-2.253C282.229,61.487,283.027,61.137,283.994,61.137z
			 M283.992,61.924c-0.67,0-1.244,0.247-1.725,0.741s-0.721,1.092-0.721,1.793c0,0.452,0.109,0.874,0.328,1.265
			c0.221,0.391,0.516,0.692,0.889,0.905c0.373,0.212,0.783,0.318,1.229,0.318s0.855-0.106,1.229-0.318
			c0.373-0.213,0.668-0.515,0.889-0.905c0.219-0.391,0.328-0.813,0.328-1.265c0-0.701-0.242-1.299-0.725-1.793
			S284.656,61.924,283.992,61.924z"/>
		<path fill="#333333" d="M288.621,58.884h0.805v8.666h-0.805V58.884z"/>
		<path fill="#333333" d="M294.057,61.137c0.965,0,1.762,0.349,2.396,1.046c0.574,0.636,0.863,1.389,0.863,2.259
			c0,0.873-0.305,1.637-0.914,2.289c-0.607,0.653-1.389,0.98-2.346,0.98c-0.959,0-1.742-0.327-2.352-0.98
			c-0.607-0.652-0.912-1.416-0.912-2.289c0-0.866,0.289-1.617,0.863-2.253C292.291,61.487,293.09,61.137,294.057,61.137z
			 M294.055,61.924c-0.67,0-1.244,0.247-1.725,0.741s-0.721,1.092-0.721,1.793c0,0.452,0.109,0.874,0.328,1.265
			c0.221,0.391,0.516,0.692,0.889,0.905c0.373,0.212,0.783,0.318,1.229,0.318s0.855-0.106,1.229-0.318
			c0.373-0.213,0.668-0.515,0.889-0.905c0.219-0.391,0.328-0.813,0.328-1.265c0-0.701-0.242-1.299-0.725-1.793
			S294.719,61.924,294.055,61.924z"/>
		<path fill="#333333" d="M304.193,61.298h0.805v4.982c0,0.877-0.076,1.519-0.229,1.925c-0.211,0.574-0.578,1.017-1.098,1.327
			c-0.521,0.311-1.148,0.466-1.879,0.466c-0.537,0-1.02-0.076-1.445-0.228c-0.428-0.152-0.775-0.355-1.043-0.611
			c-0.27-0.256-0.516-0.629-0.742-1.121h0.873c0.238,0.414,0.545,0.721,0.922,0.92c0.375,0.199,0.842,0.299,1.396,0.299
			c0.549,0,1.012-0.103,1.391-0.307c0.377-0.204,0.646-0.461,0.809-0.771c0.16-0.31,0.24-0.809,0.24-1.498V66.36
			c-0.303,0.383-0.672,0.677-1.109,0.882s-0.9,0.308-1.393,0.308c-0.574,0-1.115-0.143-1.621-0.428
			c-0.506-0.286-0.898-0.67-1.174-1.152s-0.414-1.014-0.414-1.592s0.145-1.118,0.432-1.618s0.686-0.896,1.193-1.187
			s1.045-0.437,1.607-0.437c0.469,0,0.904,0.097,1.309,0.29s0.795,0.513,1.17,0.957V61.298z M301.82,61.912
			c-0.455,0-0.879,0.11-1.27,0.331c-0.391,0.22-0.697,0.524-0.92,0.913c-0.221,0.39-0.332,0.81-0.332,1.262
			c0,0.686,0.229,1.253,0.689,1.701c0.459,0.448,1.055,0.672,1.787,0.672c0.738,0,1.334-0.222,1.783-0.666
			c0.451-0.444,0.676-1.029,0.676-1.753c0-0.472-0.104-0.892-0.311-1.262c-0.207-0.369-0.5-0.661-0.879-0.876
			S302.258,61.912,301.82,61.912z"/>
		<path fill="#333333" d="M307.002,58.724c0.184,0,0.34,0.064,0.469,0.195c0.131,0.13,0.195,0.287,0.195,0.471
			c0,0.181-0.064,0.336-0.195,0.466c-0.129,0.13-0.285,0.195-0.469,0.195c-0.18,0-0.334-0.065-0.463-0.195
			c-0.131-0.13-0.195-0.285-0.195-0.466c0-0.184,0.064-0.341,0.195-0.471C306.668,58.788,306.822,58.724,307.002,58.724z
			 M306.602,61.298h0.805v6.252h-0.805V61.298z"/>
		<path fill="#333333" d="M314.344,65.476l0.678,0.356c-0.223,0.437-0.479,0.789-0.771,1.057c-0.291,0.269-0.619,0.473-0.982,0.612
			c-0.365,0.14-0.777,0.21-1.236,0.21c-1.021,0-1.818-0.334-2.393-1.003c-0.576-0.669-0.863-1.424-0.863-2.267
			c0-0.793,0.242-1.5,0.73-2.121c0.617-0.789,1.443-1.184,2.479-1.184c1.066,0,1.918,0.404,2.553,1.213
			c0.453,0.57,0.684,1.283,0.691,2.138h-5.627c0.016,0.726,0.248,1.321,0.697,1.785c0.449,0.465,1.002,0.697,1.662,0.697
			c0.318,0,0.629-0.056,0.93-0.166c0.301-0.111,0.557-0.258,0.768-0.441C313.869,66.18,314.098,65.884,314.344,65.476z
			 M314.344,63.792c-0.107-0.43-0.264-0.772-0.469-1.029c-0.205-0.256-0.477-0.463-0.814-0.62s-0.693-0.235-1.064-0.235
			c-0.613,0-1.141,0.197-1.582,0.592c-0.322,0.287-0.566,0.718-0.73,1.293H314.344z"/>
		<path fill="#333333" d="M319.871,61.981l-0.518,0.534c-0.43-0.417-0.85-0.626-1.262-0.626c-0.26,0-0.484,0.086-0.67,0.259
			c-0.188,0.172-0.279,0.373-0.279,0.604c0,0.203,0.076,0.396,0.229,0.58c0.154,0.188,0.477,0.408,0.969,0.661
			c0.598,0.31,1.006,0.608,1.221,0.896c0.211,0.291,0.316,0.618,0.316,0.982c0,0.514-0.18,0.948-0.541,1.305
			c-0.361,0.355-0.811,0.534-1.352,0.534c-0.361,0-0.705-0.079-1.033-0.235c-0.328-0.157-0.6-0.374-0.814-0.649l0.506-0.575
			c0.41,0.464,0.846,0.695,1.307,0.695c0.322,0,0.598-0.104,0.824-0.311c0.227-0.206,0.34-0.45,0.34-0.729
			c0-0.229-0.076-0.435-0.225-0.615c-0.15-0.176-0.488-0.397-1.014-0.666c-0.564-0.291-0.949-0.578-1.152-0.862
			c-0.203-0.283-0.305-0.606-0.305-0.971c0-0.476,0.162-0.87,0.486-1.184c0.324-0.314,0.734-0.472,1.229-0.472
			C318.709,61.137,319.287,61.418,319.871,61.981z"/>
		<path fill="#333333" d="M204.82,73.219h1.684c0.966,0,1.617,0.042,1.954,0.127c0.483,0.118,0.878,0.362,1.185,0.732
			c0.306,0.369,0.459,0.834,0.459,1.394c0,0.563-0.149,1.027-0.448,1.394c-0.299,0.365-0.71,0.611-1.235,0.738
			c-0.383,0.092-1.1,0.138-2.148,0.138h-0.604v3.931h-0.846V73.219z M205.666,74.047v2.867l1.43,0.017
			c0.579,0,1.002-0.052,1.271-0.157s0.479-0.275,0.632-0.511c0.153-0.234,0.23-0.498,0.23-0.788c0-0.283-0.077-0.542-0.23-0.777
			c-0.152-0.235-0.355-0.402-0.605-0.502c-0.252-0.1-0.662-0.148-1.232-0.148H205.666z"/>
		<path fill="#333333" d="M211.354,75.42h0.821v0.913c0.246-0.359,0.504-0.629,0.776-0.807c0.272-0.179,0.556-0.268,0.851-0.268
			c0.223,0,0.459,0.071,0.713,0.213l-0.42,0.678c-0.169-0.072-0.311-0.109-0.426-0.109c-0.268,0-0.526,0.11-0.775,0.331
			c-0.249,0.22-0.438,0.562-0.568,1.025c-0.1,0.356-0.15,1.076-0.15,2.161v2.114h-0.821V75.42z"/>
		<path fill="#333333" d="M215.478,72.846c0.183,0,0.339,0.064,0.469,0.195c0.13,0.13,0.194,0.287,0.194,0.471
			c0,0.181-0.064,0.336-0.194,0.466s-0.286,0.195-0.469,0.195c-0.18,0-0.334-0.065-0.464-0.195c-0.129-0.13-0.194-0.285-0.194-0.466
			c0-0.184,0.065-0.341,0.194-0.471C215.144,72.91,215.298,72.846,215.478,72.846z M215.078,75.42h0.805v6.252h-0.805V75.42z"/>
		<path fill="#333333" d="M216.963,75.42h0.855l2.1,4.558l2.072-4.558h0.863l-2.862,6.252h-0.149L216.963,75.42z"/>
		<path fill="#333333" d="M230.306,75.42v6.252h-0.793v-1.074c-0.337,0.409-0.716,0.718-1.135,0.925s-0.878,0.311-1.376,0.311
			c-0.885,0-1.641-0.321-2.268-0.963c-0.626-0.642-0.939-1.422-0.939-2.342c0-0.9,0.316-1.67,0.948-2.31s1.393-0.96,2.281-0.96
			c0.513,0,0.978,0.109,1.394,0.328c0.416,0.218,0.781,0.546,1.095,0.982V75.42H230.306z M227.091,76.034
			c-0.448,0-0.861,0.11-1.24,0.33c-0.379,0.221-0.681,0.529-0.903,0.928c-0.225,0.397-0.336,0.818-0.336,1.263
			c0,0.439,0.113,0.86,0.338,1.263c0.227,0.401,0.529,0.715,0.91,0.938s0.789,0.336,1.226,0.336c0.44,0,0.856-0.111,1.251-0.333
			c0.395-0.223,0.697-0.522,0.91-0.901c0.212-0.379,0.318-0.806,0.318-1.28c0-0.723-0.238-1.327-0.715-1.813
			S227.787,76.034,227.091,76.034z"/>
		<path fill="#333333" d="M232.816,73.099h0.805v2.321h1.275v0.695h-1.275v5.557h-0.805v-5.557h-1.098V75.42h1.098V73.099z"/>
		<path fill="#333333" d="M241.367,79.598l0.678,0.356c-0.223,0.437-0.479,0.789-0.771,1.057c-0.292,0.269-0.619,0.473-0.983,0.612
			s-0.776,0.21-1.236,0.21c-1.021,0-1.818-0.334-2.393-1.003c-0.576-0.669-0.863-1.424-0.863-2.267c0-0.793,0.244-1.5,0.73-2.121
			c0.617-0.789,1.443-1.184,2.479-1.184c1.066,0,1.918,0.404,2.555,1.213c0.451,0.57,0.682,1.283,0.689,2.138h-5.625
			c0.015,0.726,0.246,1.321,0.695,1.785c0.449,0.465,1.004,0.697,1.663,0.697c0.318,0,0.628-0.056,0.929-0.166
			c0.301-0.111,0.558-0.258,0.769-0.441C240.894,80.302,241.121,80.006,241.367,79.598z M241.367,77.914
			c-0.107-0.43-0.264-0.772-0.469-1.029c-0.205-0.256-0.477-0.463-0.814-0.62s-0.692-0.235-1.064-0.235
			c-0.613,0-1.141,0.197-1.582,0.592c-0.322,0.287-0.566,0.718-0.73,1.293H241.367z"/>
		<path fill="#333333" d="M247.143,73.219h0.845v7.637h3.253v0.816h-4.098V73.219z"/>
		<path fill="#333333" d="M252.725,72.846c0.184,0,0.34,0.064,0.469,0.195c0.131,0.13,0.195,0.287,0.195,0.471
			c0,0.181-0.064,0.336-0.195,0.466c-0.129,0.13-0.285,0.195-0.469,0.195c-0.18,0-0.334-0.065-0.463-0.195
			c-0.13-0.13-0.195-0.285-0.195-0.466c0-0.184,0.065-0.341,0.195-0.471C252.391,72.91,252.545,72.846,252.725,72.846z
			 M252.326,75.42h0.804v6.252h-0.804V75.42z"/>
		<path fill="#333333" d="M254.797,75.42h0.805v1.08c0.279-0.398,0.566-0.689,0.862-0.873c0.407-0.245,0.835-0.368,1.282-0.368
			c0.305,0,0.592,0.06,0.863,0.179c0.273,0.118,0.496,0.276,0.668,0.474s0.322,0.479,0.449,0.848
			c0.268-0.49,0.602-0.863,1.002-1.118c0.402-0.254,0.834-0.382,1.297-0.382c0.432,0,0.813,0.109,1.143,0.328
			c0.33,0.218,0.576,0.522,0.736,0.913c0.162,0.391,0.242,0.977,0.242,1.759v3.413h-0.822v-3.413c0-0.671-0.049-1.131-0.143-1.382
			c-0.096-0.251-0.26-0.453-0.49-0.606s-0.508-0.23-0.828-0.23c-0.389,0-0.746,0.115-1.068,0.345
			c-0.322,0.23-0.559,0.537-0.707,0.92s-0.223,1.022-0.223,1.919v2.448h-0.805v-3.201c0-0.754-0.047-1.267-0.141-1.537
			c-0.094-0.27-0.258-0.486-0.492-0.649c-0.232-0.162-0.512-0.244-0.834-0.244c-0.371,0-0.719,0.112-1.042,0.337
			c-0.323,0.224-0.563,0.525-0.718,0.904c-0.155,0.38-0.232,0.96-0.232,1.741v2.649h-0.805V75.42z"/>
		<path fill="#333333" d="M266.119,72.846c0.184,0,0.34,0.064,0.471,0.195c0.129,0.13,0.193,0.287,0.193,0.471
			c0,0.181-0.064,0.336-0.193,0.466c-0.131,0.13-0.287,0.195-0.471,0.195c-0.178,0-0.332-0.065-0.463-0.195
			c-0.129-0.13-0.193-0.285-0.193-0.466c0-0.184,0.064-0.341,0.193-0.471C265.787,72.91,265.941,72.846,266.119,72.846z
			 M265.721,75.42h0.805v6.252h-0.805V75.42z"/>
		<path fill="#333333" d="M268.898,73.099h0.805v2.321h1.275v0.695h-1.275v5.557h-0.805v-5.557h-1.098V75.42h1.098V73.099z"/>
		<path fill="#333333" d="M277.449,79.598l0.678,0.356c-0.221,0.437-0.479,0.789-0.77,1.057c-0.291,0.269-0.619,0.473-0.984,0.612
			c-0.363,0.14-0.775,0.21-1.236,0.21c-1.02,0-1.816-0.334-2.393-1.003c-0.574-0.669-0.863-1.424-0.863-2.267
			c0-0.793,0.244-1.5,0.73-2.121c0.617-0.789,1.443-1.184,2.479-1.184c1.066,0,1.918,0.404,2.555,1.213
			c0.453,0.57,0.682,1.283,0.689,2.138h-5.625c0.016,0.726,0.248,1.321,0.695,1.785c0.449,0.465,1.004,0.697,1.664,0.697
			c0.318,0,0.627-0.056,0.928-0.166c0.303-0.111,0.559-0.258,0.77-0.441C276.977,80.302,277.205,80.006,277.449,79.598z
			 M277.449,77.914c-0.107-0.43-0.264-0.772-0.469-1.029c-0.205-0.256-0.477-0.463-0.814-0.62s-0.691-0.235-1.064-0.235
			c-0.613,0-1.141,0.197-1.582,0.592c-0.322,0.287-0.564,0.718-0.73,1.293H277.449z"/>
		<path fill="#333333" d="M286.074,73.006v8.666h-0.793v-1.074c-0.336,0.409-0.715,0.718-1.135,0.925
			c-0.418,0.207-0.877,0.311-1.375,0.311c-0.885,0-1.641-0.321-2.268-0.963s-0.939-1.422-0.939-2.342c0-0.9,0.316-1.67,0.947-2.31
			c0.633-0.64,1.393-0.96,2.281-0.96c0.514,0,0.979,0.109,1.395,0.328c0.416,0.218,0.781,0.546,1.094,0.982v-3.563H286.074z
			 M282.859,76.034c-0.447,0-0.861,0.11-1.238,0.33c-0.379,0.221-0.682,0.529-0.904,0.928c-0.225,0.397-0.336,0.818-0.336,1.263
			c0,0.439,0.113,0.86,0.338,1.263c0.227,0.401,0.529,0.715,0.91,0.938s0.789,0.336,1.225,0.336c0.441,0,0.857-0.111,1.252-0.333
			c0.395-0.223,0.697-0.522,0.91-0.901c0.211-0.379,0.318-0.806,0.318-1.28c0-0.723-0.238-1.327-0.715-1.813
			S283.557,76.034,282.859,76.034z"/>
	</g>
	<g>
		<path fill="#376BFF" d="M173.798,20.752c0.945-0.002,1.749,0.299,2.428,0.909c0.677,0.61,1.011,1.349,1.019,2.219
			c0,0.857-0.326,1.591-0.989,2.2c-0.661,0.61-1.455,0.915-2.388,0.92c-0.952,0.004-1.77-0.301-2.446-0.92
			c-0.674-0.614-1.014-1.361-1.021-2.241c0-0.846,0.324-1.575,0.991-2.177C172.053,21.061,172.856,20.755,173.798,20.752z
			 M171.155,28.668l5.366-0.02l0.093,19.198l-5.364,0.021L171.155,28.668z"/>
		<path fill="#376BFF" d="M239.552,31.084l-3.306,2.994c-1.355-1.194-2.586-1.79-3.689-1.787c-0.601,0.004-1.064,0.119-1.406,0.352
			c-0.344,0.231-0.508,0.518-0.508,0.855c0,0.26,0.112,0.502,0.33,0.713c0.215,0.219,0.746,0.514,1.604,0.888l1.968,0.873
			c2.075,0.911,3.499,1.842,4.279,2.79c0.784,0.953,1.173,2.065,1.18,3.348c0.003,1.706-0.684,3.131-2.075,4.279
			c-1.389,1.144-3.264,1.723-5.605,1.732c-3.116,0.015-5.613-1.069-7.481-3.252l3.286-3.242c0.633,0.654,1.372,1.187,2.213,1.587
			c0.857,0.402,1.604,0.603,2.261,0.602c0.708-0.004,1.276-0.157,1.704-0.468c0.432-0.305,0.645-0.66,0.643-1.058
			c-0.006-0.744-0.787-1.465-2.342-2.165l-1.816-0.803c-3.466-1.551-5.211-3.506-5.221-5.854c-0.01-1.519,0.638-2.82,1.938-3.9
			c1.299-1.081,2.965-1.627,4.996-1.635c1.387-0.006,2.698,0.264,3.926,0.809C237.656,29.278,238.691,30.061,239.552,31.084z"/>
		<path fill="#376BFF" d="M257.262,31.013l-3.307,2.996c-1.357-1.195-2.582-1.791-3.686-1.789c-0.599,0.005-1.074,0.12-1.414,0.354
			c-0.334,0.229-0.506,0.517-0.503,0.854c0,0.259,0.107,0.497,0.322,0.718c0.225,0.212,0.757,0.51,1.611,0.884l1.973,0.873
			c2.07,0.91,3.493,1.839,4.274,2.789c0.779,0.952,1.172,2.065,1.178,3.347c0.01,1.707-0.68,3.133-2.073,4.277
			c-1.387,1.146-3.259,1.723-5.603,1.735c-3.118,0.013-5.613-1.069-7.488-3.251l3.291-3.242c0.635,0.654,1.369,1.184,2.217,1.587
			c0.852,0.402,1.597,0.601,2.256,0.601c0.708-0.003,1.271-0.157,1.707-0.465c0.432-0.308,0.642-0.663,0.642-1.063
			c-0.005-0.742-0.788-1.461-2.349-2.159l-1.812-0.809c-3.47-1.55-5.208-3.503-5.22-5.855c-0.01-1.518,0.64-2.814,1.936-3.898
			c1.305-1.081,2.967-1.624,5.003-1.633c1.382-0.005,2.695,0.262,3.919,0.804C255.369,29.212,256.406,29.991,257.262,31.013z"/>
		<path fill="#376BFF" d="M261.854,28.315l5.422-0.023l0.047,9.249c0.01,1.796,0.154,3.045,0.43,3.744
			c0.281,0.699,0.725,1.245,1.344,1.628c0.607,0.385,1.363,0.574,2.25,0.573c0.9,0,1.66-0.194,2.277-0.583
			c0.619-0.382,1.082-0.947,1.385-1.691c0.215-0.552,0.322-1.736,0.318-3.545l-0.049-9.404l5.367-0.023l0.035,8.134
			c0.014,3.354-0.27,5.648-0.848,6.882c-0.713,1.512-1.768,2.671-3.166,3.484c-1.402,0.808-3.18,1.218-5.344,1.227
			c-2.344,0.011-4.246-0.453-5.693-1.388c-1.453-0.937-2.48-2.241-3.08-3.921c-0.424-1.163-0.645-3.282-0.66-6.353L261.854,28.315z"
			/>
		<path fill="#376BFF" d="M284.773,28.223l4.598-0.019l0.014,2.417c0.492-0.955,1.15-1.68,1.969-2.181
			c0.824-0.496,1.73-0.745,2.713-0.747c0.693-0.005,1.422,0.159,2.188,0.485l-1.656,4.15c-0.625-0.276-1.15-0.418-1.547-0.415
			c-0.834,0.003-1.531,0.465-2.094,1.384c-0.566,0.921-0.842,2.721-0.83,5.404l0.027,0.937l0.031,7.762l-5.318,0.018L284.773,28.223
			z"/>
		<path fill="#376BFF" d="M320.387,39.078l-17.244,0.063c0.256,1.364,0.926,2.446,2.018,3.249c1.078,0.804,2.463,1.2,4.137,1.194
			c2.008-0.008,3.729-0.645,5.16-1.91l4.535,1.891c-1.123,1.439-2.465,2.504-4.037,3.198c-1.568,0.695-3.434,1.046-5.594,1.055
			c-3.357,0.012-6.094-0.931-8.211-2.817c-2.119-1.891-3.186-4.268-3.203-7.123c-0.014-2.934,1.027-5.365,3.117-7.313
			c2.098-1.941,4.732-2.92,7.904-2.93c3.363-0.015,6.105,0.944,8.229,2.87c2.117,1.923,3.189,4.478,3.203,7.652L320.387,39.078z
			 M314.998,35.303c-0.361-1.068-1.064-1.934-2.111-2.604c-1.043-0.664-2.256-0.993-3.635-0.988c-1.5,0.005-2.809,0.388-3.936,1.145
			c-0.701,0.474-1.352,1.307-1.953,2.495L314.998,35.303z"/>
	</g>
	<g>
		<path fill="#376BFF" d="M320.234,53.621H220.188l-0.749-1.104C218.9,51.729,209,36.912,204.36,19.769
			c-4.646,17.144-14.553,31.961-15.083,32.749l-0.741,1.104h-17.534v-4.59h14.621c3.091-4.894,15.2-25.186,15.959-43.667
			l0.086-2.214h5.378l0.09,2.214c0.753,18.481,12.862,38.773,15.958,43.667h97.141V53.621z"/>
	</g>
	<g>
		<path fill-rule="evenodd" clip-rule="evenodd" fill="#202C6C" d="M187.49,53.738c-0.254-0.925-0.491-1.816-0.741-2.703
			c-0.743-2.692-1.471-5.388-2.271-8.073c-0.235-0.811-0.653-1.587-1.071-2.345c-0.599-1.107-1.424-2.046-2.757-2.622
			c2.482-1.835,4.928-3.646,7.365-5.454c2.358,2.572,3.309,5.643,4.004,8.896c0.259-0.228,0.425-0.379,0.599-0.537
			c4.048-3.751,8.356-7.249,13.044-10.347c4.881-3.226,10.099-5.917,15.604-8.179c4.541-1.86,9.207-3.436,13.904-4.944
			c0.112-0.039,0.225-0.065,0.379-0.035c-0.184,0.099-0.362,0.194-0.54,0.289c-3.501,1.824-7.029,3.599-10.486,5.491
			c-5.352,2.932-10.381,6.274-15.117,9.975c-6.297,4.915-12.01,10.348-17.495,15.979C190.438,50.643,188.99,52.174,187.49,53.738z"
			/>
		<path fill="#FFFFFF" d="M187.127,55.152l-0.337-1.225c-0.105-0.39-0.208-0.771-0.309-1.152c-0.137-0.521-0.278-1.034-0.422-1.549
			c-0.192-0.687-0.388-1.378-0.573-2.07c-0.543-1.966-1.102-3.997-1.695-5.984c-0.214-0.711-0.586-1.426-1.015-2.213
			c-0.61-1.124-1.374-1.856-2.408-2.302l-1.152-0.497l1.009-0.745c1.236-0.913,2.467-1.826,3.689-2.73
			c1.233-0.912,2.45-1.816,3.676-2.719l0.518-0.386l0.44,0.477c2.212,2.407,3.232,5.236,3.9,8.021
			c4.282-3.942,8.478-7.26,12.82-10.127c4.742-3.132,10.03-5.906,15.726-8.239c4.829-1.978,9.761-3.623,13.953-4.971
			c0.126-0.039,0.277-0.078,0.471-0.078c0.09,0,0.186,0.013,0.28,0.029l1.944,0.417l-1.868,0.979
			c-0.149,0.082-0.293,0.158-0.442,0.234c-1.068,0.56-2.17,1.126-3.234,1.675c-2.381,1.23-4.849,2.504-7.227,3.809
			c-5.194,2.847-10.25,6.18-15.021,9.909c-5.495,4.293-11.03,9.352-17.426,15.916c-1.01,1.04-1.994,2.067-3.031,3.153
			c-0.46,0.481-0.924,0.963-1.382,1.449L187.127,55.152z M181.978,37.908c0.83,0.575,1.517,1.355,2.065,2.366
			c0.461,0.858,0.872,1.637,1.126,2.482c0.596,2.005,1.155,4.048,1.704,6.021c0.188,0.687,0.378,1.375,0.57,2.065
			c0.135,0.491,0.269,0.979,0.404,1.478c0.167-0.176,0.338-0.352,0.502-0.525c1.043-1.094,2.026-2.124,3.047-3.166
			c6.438-6.615,12.019-11.715,17.565-16.048c4.835-3.774,9.956-7.153,15.22-10.039c1.09-0.598,2.197-1.192,3.311-1.771
			c-1.96,0.701-3.967,1.456-5.957,2.271c-5.6,2.301-10.811,5.029-15.473,8.11c-4.386,2.897-8.619,6.257-12.956,10.274
			c-0.175,0.16-0.354,0.323-0.612,0.551l-0.927,0.808l-0.254-1.201c-0.587-2.775-1.417-5.652-3.401-8.068
			c-1.047,0.773-2.089,1.548-3.144,2.323C183.84,36.526,182.911,37.218,181.978,37.908z"/>
	</g>
	<g>
		<path fill="#FFFFFF" d="M4.058,59.097h0.845v8.453H4.058V59.097z"/>
		<path fill="#FFFFFF" d="M6.707,61.298h0.805v1.12c0.322-0.429,0.678-0.75,1.068-0.962c0.391-0.213,0.816-0.319,1.276-0.319
			c0.467,0,0.882,0.119,1.244,0.356s0.629,0.558,0.802,0.96s0.258,1.028,0.258,1.879v3.218h-0.804v-2.982
			c0-0.72-0.03-1.201-0.09-1.442c-0.093-0.414-0.272-0.725-0.536-0.934s-0.609-0.313-1.035-0.313c-0.486,0-0.922,0.161-1.308,0.482
			c-0.385,0.322-0.639,0.721-0.761,1.195c-0.077,0.311-0.115,0.878-0.115,1.701v2.293H6.707V61.298z"/>
		<path fill="#FFFFFF" d="M14.585,58.977h0.804v2.321h1.276v0.695H15.39v5.557h-0.804v-5.557h-1.098v-0.695h1.098V58.977z"/>
		<path fill="#FFFFFF" d="M23.136,65.476l0.678,0.356c-0.223,0.437-0.479,0.789-0.771,1.057c-0.292,0.269-0.619,0.473-0.983,0.612
			s-0.776,0.21-1.237,0.21c-1.02,0-1.817-0.334-2.393-1.003s-0.863-1.424-0.863-2.267c0-0.793,0.244-1.5,0.73-2.121
			c0.617-0.789,1.444-1.184,2.479-1.184c1.066,0,1.917,0.404,2.554,1.213c0.452,0.57,0.683,1.283,0.69,2.138h-5.625
			c0.015,0.726,0.247,1.321,0.696,1.785c0.449,0.465,1.003,0.697,1.663,0.697c0.318,0,0.628-0.056,0.929-0.166
			c0.301-0.111,0.557-0.258,0.768-0.441C22.662,66.18,22.89,65.884,23.136,65.476z M23.136,63.792
			c-0.107-0.43-0.264-0.772-0.469-1.029c-0.206-0.256-0.477-0.463-0.814-0.62s-0.692-0.235-1.064-0.235
			c-0.614,0-1.141,0.197-1.582,0.592c-0.322,0.287-0.566,0.718-0.73,1.293H23.136z"/>
		<path fill="#FFFFFF" d="M25.216,61.298h0.822v0.913c0.245-0.359,0.504-0.629,0.776-0.807c0.272-0.179,0.555-0.268,0.851-0.268
			c0.222,0,0.459,0.071,0.712,0.213l-0.419,0.678c-0.169-0.072-0.311-0.109-0.425-0.109c-0.268,0-0.527,0.11-0.776,0.331
			c-0.249,0.22-0.438,0.562-0.569,1.025c-0.1,0.356-0.149,1.076-0.149,2.161v2.114h-0.822V61.298z"/>
		<path fill="#FFFFFF" d="M29.06,61.298h0.805v1.12c0.322-0.429,0.678-0.75,1.068-0.962c0.391-0.213,0.816-0.319,1.276-0.319
			c0.467,0,0.882,0.119,1.244,0.356s0.629,0.558,0.802,0.96s0.258,1.028,0.258,1.879v3.218h-0.804v-2.982
			c0-0.72-0.03-1.201-0.09-1.442c-0.093-0.414-0.272-0.725-0.536-0.934s-0.609-0.313-1.035-0.313c-0.486,0-0.922,0.161-1.308,0.482
			c-0.385,0.322-0.639,0.721-0.761,1.195c-0.077,0.311-0.115,0.878-0.115,1.701v2.293H29.06V61.298z"/>
		<path fill="#FFFFFF" d="M42.466,61.298v6.252h-0.793v-1.074c-0.337,0.409-0.715,0.718-1.135,0.925s-0.878,0.311-1.376,0.311
			c-0.885,0-1.641-0.321-2.267-0.963c-0.626-0.642-0.939-1.422-0.939-2.342c0-0.9,0.316-1.67,0.948-2.31
			c0.632-0.64,1.393-0.96,2.281-0.96c0.513,0,0.978,0.109,1.394,0.328c0.416,0.218,0.781,0.546,1.095,0.982v-1.149H42.466z
			 M39.251,61.912c-0.448,0-0.861,0.11-1.24,0.33c-0.379,0.221-0.68,0.529-0.904,0.928c-0.224,0.397-0.336,0.818-0.336,1.263
			c0,0.439,0.113,0.86,0.339,1.263c0.226,0.401,0.529,0.715,0.91,0.938s0.789,0.336,1.226,0.336c0.44,0,0.857-0.111,1.251-0.333
			c0.394-0.223,0.697-0.522,0.91-0.901c0.212-0.379,0.318-0.806,0.318-1.28c0-0.723-0.238-1.327-0.715-1.813
			C40.534,62.155,39.948,61.912,39.251,61.912z"/>
		<path fill="#FFFFFF" d="M44.978,58.977h0.804v2.321h1.276v0.695h-1.276v5.557h-0.804v-5.557H43.88v-0.695h1.098V58.977z"/>
		<path fill="#FFFFFF" d="M48.543,58.724c0.183,0,0.339,0.064,0.469,0.195c0.13,0.13,0.195,0.287,0.195,0.471
			c0,0.181-0.065,0.336-0.195,0.466c-0.129,0.13-0.286,0.195-0.469,0.195c-0.18,0-0.334-0.065-0.464-0.195
			c-0.129-0.13-0.194-0.285-0.194-0.466c0-0.184,0.065-0.341,0.194-0.471C48.209,58.788,48.363,58.724,48.543,58.724z
			 M48.144,61.298h0.804v6.252h-0.804V61.298z"/>
		<path fill="#FFFFFF" d="M53.58,61.137c0.963,0,1.761,0.349,2.395,1.046c0.576,0.636,0.864,1.389,0.864,2.259
			c0,0.873-0.304,1.637-0.913,2.289c-0.608,0.653-1.39,0.98-2.346,0.98c-0.959,0-1.744-0.327-2.352-0.98
			c-0.608-0.652-0.913-1.416-0.913-2.289c0-0.866,0.288-1.617,0.864-2.253C51.812,61.487,52.612,61.137,53.58,61.137z
			 M53.577,61.924c-0.669,0-1.244,0.247-1.724,0.741c-0.481,0.494-0.721,1.092-0.721,1.793c0,0.452,0.11,0.874,0.329,1.265
			c0.219,0.391,0.515,0.692,0.888,0.905c0.373,0.212,0.783,0.318,1.229,0.318s0.855-0.106,1.228-0.318
			c0.373-0.213,0.669-0.515,0.888-0.905s0.329-0.813,0.329-1.265c0-0.701-0.241-1.299-0.724-1.793S54.242,61.924,53.577,61.924z"/>
		<path fill="#FFFFFF" d="M58.326,61.298h0.805v1.12c0.322-0.429,0.678-0.75,1.068-0.962c0.391-0.213,0.816-0.319,1.276-0.319
			c0.467,0,0.882,0.119,1.244,0.356s0.629,0.558,0.802,0.96s0.258,1.028,0.258,1.879v3.218h-0.804v-2.982
			c0-0.72-0.03-1.201-0.09-1.442c-0.093-0.414-0.272-0.725-0.536-0.934s-0.609-0.313-1.035-0.313c-0.486,0-0.922,0.161-1.308,0.482
			c-0.385,0.322-0.639,0.721-0.761,1.195c-0.077,0.311-0.115,0.878-0.115,1.701v2.293h-0.805V61.298z"/>
		<path fill="#FFFFFF" d="M71.732,61.298v6.252h-0.793v-1.074c-0.337,0.409-0.715,0.718-1.135,0.925s-0.878,0.311-1.376,0.311
			c-0.885,0-1.641-0.321-2.267-0.963c-0.626-0.642-0.939-1.422-0.939-2.342c0-0.9,0.316-1.67,0.948-2.31
			c0.632-0.64,1.393-0.96,2.281-0.96c0.513,0,0.978,0.109,1.394,0.328c0.416,0.218,0.781,0.546,1.095,0.982v-1.149H71.732z
			 M68.518,61.912c-0.448,0-0.861,0.11-1.24,0.33c-0.379,0.221-0.68,0.529-0.904,0.928c-0.224,0.397-0.336,0.818-0.336,1.263
			c0,0.439,0.113,0.86,0.339,1.263c0.226,0.401,0.529,0.715,0.91,0.938s0.789,0.336,1.226,0.336c0.44,0,0.857-0.111,1.251-0.333
			c0.394-0.223,0.697-0.522,0.91-0.901c0.212-0.379,0.318-0.806,0.318-1.28c0-0.723-0.238-1.327-0.715-1.813
			C69.8,62.155,69.214,61.912,68.518,61.912z"/>
		<path fill="#FFFFFF" d="M73.422,58.884h0.804v8.666h-0.804V58.884z"/>
		<path fill="#FFFFFF" d="M78.45,59.925v-0.828h4.632v0.828h-1.885v7.625h-0.863v-7.625H78.45z"/>
		<path fill="#FFFFFF" d="M89.432,65.476l0.678,0.356c-0.223,0.437-0.479,0.789-0.771,1.057c-0.291,0.269-0.619,0.473-0.982,0.612
			c-0.365,0.14-0.777,0.21-1.237,0.21c-1.021,0-1.817-0.334-2.393-1.003s-0.862-1.424-0.862-2.267c0-0.793,0.243-1.5,0.73-2.121
			c0.617-0.789,1.443-1.184,2.479-1.184c1.066,0,1.917,0.404,2.554,1.213c0.452,0.57,0.683,1.283,0.69,2.138H84.69
			c0.015,0.726,0.247,1.321,0.696,1.785c0.449,0.465,1.003,0.697,1.662,0.697c0.318,0,0.629-0.056,0.93-0.166
			c0.301-0.111,0.557-0.258,0.768-0.441C88.957,66.18,89.186,65.884,89.432,65.476z M89.432,63.792
			c-0.107-0.43-0.264-0.772-0.469-1.029c-0.206-0.256-0.478-0.463-0.814-0.62c-0.338-0.157-0.693-0.235-1.064-0.235
			c-0.614,0-1.142,0.197-1.582,0.592c-0.322,0.287-0.566,0.718-0.73,1.293H89.432z"/>
		<path fill="#FFFFFF" d="M97.885,62.597l-0.639,0.396c-0.551-0.732-1.303-1.098-2.256-1.098c-0.762,0-1.393,0.245-1.896,0.734
			c-0.504,0.49-0.756,1.085-0.756,1.785c0,0.455,0.117,0.884,0.348,1.286c0.232,0.401,0.549,0.713,0.953,0.936
			c0.404,0.222,0.855,0.333,1.357,0.333c0.918,0,1.668-0.366,2.25-1.098l0.639,0.419c-0.299,0.45-0.701,0.8-1.205,1.048
			s-1.076,0.372-1.721,0.372c-0.988,0-1.809-0.314-2.459-0.942c-0.652-0.629-0.977-1.393-0.977-2.293
			c0-0.605,0.152-1.168,0.457-1.687c0.305-0.52,0.723-0.925,1.254-1.216c0.533-0.291,1.129-0.437,1.787-0.437
			c0.414,0,0.814,0.063,1.199,0.189c0.385,0.127,0.711,0.291,0.98,0.494C97.469,62.023,97.697,62.282,97.885,62.597z"/>
		<path fill="#FFFFFF" d="M99.43,58.884h0.805v3.534c0.326-0.429,0.684-0.75,1.074-0.962c0.391-0.213,0.814-0.319,1.271-0.319
			c0.467,0,0.881,0.119,1.244,0.356c0.361,0.237,0.629,0.557,0.801,0.957s0.258,1.027,0.258,1.882v3.218h-0.805v-2.982
			c0-0.72-0.027-1.201-0.086-1.442c-0.1-0.414-0.279-0.725-0.543-0.934c-0.262-0.209-0.605-0.313-1.031-0.313
			c-0.486,0-0.922,0.161-1.307,0.482c-0.385,0.322-0.639,0.721-0.762,1.195c-0.076,0.307-0.115,0.874-0.115,1.701v2.293H99.43
			V58.884z"/>
		<path fill="#FFFFFF" d="M106.607,61.298h0.805v1.12c0.322-0.429,0.678-0.75,1.068-0.962c0.391-0.213,0.816-0.319,1.277-0.319
			c0.467,0,0.881,0.119,1.244,0.356c0.361,0.237,0.629,0.558,0.801,0.96s0.258,1.028,0.258,1.879v3.218h-0.805v-2.982
			c0-0.72-0.029-1.201-0.088-1.442c-0.094-0.414-0.273-0.725-0.537-0.934s-0.609-0.313-1.035-0.313
			c-0.486,0-0.922,0.161-1.307,0.482c-0.385,0.322-0.639,0.721-0.762,1.195c-0.076,0.311-0.115,0.878-0.115,1.701v2.293h-0.805
			V61.298z"/>
		<path fill="#FFFFFF" d="M116.744,61.137c0.965,0,1.762,0.349,2.396,1.046c0.574,0.636,0.863,1.389,0.863,2.259
			c0,0.873-0.305,1.637-0.914,2.289c-0.607,0.653-1.389,0.98-2.346,0.98c-0.959,0-1.742-0.327-2.352-0.98
			c-0.607-0.652-0.912-1.416-0.912-2.289c0-0.866,0.289-1.617,0.863-2.253C114.979,61.487,115.777,61.137,116.744,61.137z
			 M116.742,61.924c-0.67,0-1.244,0.247-1.725,0.741s-0.721,1.092-0.721,1.793c0,0.452,0.109,0.874,0.328,1.265
			c0.221,0.391,0.516,0.692,0.889,0.905c0.373,0.212,0.783,0.318,1.229,0.318s0.855-0.106,1.229-0.318
			c0.373-0.213,0.668-0.515,0.889-0.905c0.219-0.391,0.328-0.813,0.328-1.265c0-0.701-0.242-1.299-0.725-1.793
			S117.406,61.924,116.742,61.924z"/>
		<path fill="#FFFFFF" d="M121.371,58.884h0.805v8.666h-0.805V58.884z"/>
		<path fill="#FFFFFF" d="M126.807,61.137c0.965,0,1.762,0.349,2.396,1.046c0.574,0.636,0.863,1.389,0.863,2.259
			c0,0.873-0.305,1.637-0.914,2.289c-0.607,0.653-1.389,0.98-2.346,0.98c-0.959,0-1.742-0.327-2.352-0.98
			c-0.607-0.652-0.912-1.416-0.912-2.289c0-0.866,0.289-1.617,0.863-2.253C125.041,61.487,125.84,61.137,126.807,61.137z
			 M126.805,61.924c-0.67,0-1.244,0.247-1.725,0.741s-0.721,1.092-0.721,1.793c0,0.452,0.109,0.874,0.328,1.265
			c0.221,0.391,0.516,0.692,0.889,0.905c0.373,0.212,0.783,0.318,1.229,0.318s0.855-0.106,1.229-0.318
			c0.373-0.213,0.668-0.515,0.889-0.905c0.219-0.391,0.328-0.813,0.328-1.265c0-0.701-0.242-1.299-0.725-1.793
			S127.469,61.924,126.805,61.924z"/>
		<path fill="#FFFFFF" d="M136.943,61.298h0.805v4.982c0,0.877-0.076,1.519-0.229,1.925c-0.211,0.574-0.578,1.017-1.098,1.327
			c-0.521,0.311-1.148,0.466-1.879,0.466c-0.537,0-1.02-0.076-1.445-0.228c-0.428-0.152-0.775-0.355-1.043-0.611
			c-0.27-0.256-0.516-0.629-0.742-1.121h0.873c0.238,0.414,0.545,0.721,0.922,0.92c0.375,0.199,0.842,0.299,1.396,0.299
			c0.549,0,1.012-0.103,1.391-0.307c0.377-0.204,0.646-0.461,0.809-0.771c0.16-0.31,0.24-0.809,0.24-1.498V66.36
			c-0.303,0.383-0.672,0.677-1.109,0.882s-0.9,0.308-1.393,0.308c-0.574,0-1.115-0.143-1.621-0.428
			c-0.506-0.286-0.898-0.67-1.174-1.152s-0.414-1.014-0.414-1.592s0.145-1.118,0.432-1.618s0.686-0.896,1.193-1.187
			s1.045-0.437,1.607-0.437c0.469,0,0.904,0.097,1.309,0.29s0.795,0.513,1.17,0.957V61.298z M134.57,61.912
			c-0.455,0-0.879,0.11-1.27,0.331c-0.391,0.22-0.697,0.524-0.92,0.913c-0.221,0.39-0.332,0.81-0.332,1.262
			c0,0.686,0.229,1.253,0.689,1.701c0.459,0.448,1.055,0.672,1.787,0.672c0.738,0,1.334-0.222,1.783-0.666
			c0.451-0.444,0.676-1.029,0.676-1.753c0-0.472-0.104-0.892-0.311-1.262c-0.207-0.369-0.5-0.661-0.879-0.876
			S135.008,61.912,134.57,61.912z"/>
		<path fill="#FFFFFF" d="M139.752,58.724c0.184,0,0.34,0.064,0.469,0.195c0.131,0.13,0.195,0.287,0.195,0.471
			c0,0.181-0.064,0.336-0.195,0.466c-0.129,0.13-0.285,0.195-0.469,0.195c-0.18,0-0.334-0.065-0.463-0.195
			c-0.131-0.13-0.195-0.285-0.195-0.466c0-0.184,0.064-0.341,0.195-0.471C139.418,58.788,139.572,58.724,139.752,58.724z
			 M139.352,61.298h0.805v6.252h-0.805V61.298z"/>
		<path fill="#FFFFFF" d="M147.094,65.476l0.678,0.356c-0.223,0.437-0.479,0.789-0.771,1.057c-0.291,0.269-0.619,0.473-0.982,0.612
			c-0.365,0.14-0.777,0.21-1.236,0.21c-1.021,0-1.818-0.334-2.393-1.003c-0.576-0.669-0.863-1.424-0.863-2.267
			c0-0.793,0.242-1.5,0.73-2.121c0.617-0.789,1.443-1.184,2.479-1.184c1.066,0,1.918,0.404,2.553,1.213
			c0.453,0.57,0.684,1.283,0.691,2.138h-5.627c0.016,0.726,0.248,1.321,0.697,1.785c0.449,0.465,1.002,0.697,1.662,0.697
			c0.318,0,0.629-0.056,0.93-0.166c0.301-0.111,0.557-0.258,0.768-0.441C146.619,66.18,146.848,65.884,147.094,65.476z
			 M147.094,63.792c-0.107-0.43-0.264-0.772-0.469-1.029c-0.205-0.256-0.477-0.463-0.814-0.62s-0.693-0.235-1.064-0.235
			c-0.613,0-1.141,0.197-1.582,0.592c-0.322,0.287-0.566,0.718-0.73,1.293H147.094z"/>
		<path fill="#FFFFFF" d="M152.621,61.981l-0.518,0.534c-0.43-0.417-0.85-0.626-1.262-0.626c-0.26,0-0.484,0.086-0.67,0.259
			c-0.188,0.172-0.279,0.373-0.279,0.604c0,0.203,0.076,0.396,0.229,0.58c0.154,0.188,0.477,0.408,0.969,0.661
			c0.598,0.31,1.006,0.608,1.221,0.896c0.211,0.291,0.316,0.618,0.316,0.982c0,0.514-0.18,0.948-0.541,1.305
			c-0.361,0.355-0.811,0.534-1.352,0.534c-0.361,0-0.705-0.079-1.033-0.235c-0.328-0.157-0.6-0.374-0.814-0.649l0.506-0.575
			c0.41,0.464,0.846,0.695,1.307,0.695c0.322,0,0.598-0.104,0.824-0.311c0.227-0.206,0.34-0.45,0.34-0.729
			c0-0.229-0.076-0.435-0.225-0.615c-0.15-0.176-0.488-0.397-1.014-0.666c-0.564-0.291-0.949-0.578-1.152-0.862
			c-0.203-0.283-0.305-0.606-0.305-0.971c0-0.476,0.162-0.87,0.486-1.184c0.324-0.314,0.734-0.472,1.229-0.472
			C151.459,61.137,152.037,61.418,152.621,61.981z"/>
		<path fill="#FFFFFF" d="M37.571,73.219h1.684c0.965,0,1.617,0.042,1.954,0.127c0.483,0.118,0.877,0.362,1.184,0.732
			c0.306,0.369,0.459,0.834,0.459,1.394c0,0.563-0.149,1.027-0.448,1.394c-0.299,0.365-0.71,0.611-1.235,0.738
			c-0.383,0.092-1.1,0.138-2.149,0.138h-0.604v3.931h-0.845V73.219z M38.416,74.047v2.867l1.431,0.017
			c0.579,0,1.002-0.052,1.27-0.157s0.479-0.275,0.632-0.511c0.153-0.234,0.229-0.498,0.229-0.788c0-0.283-0.077-0.542-0.229-0.777
			c-0.153-0.235-0.355-0.402-0.606-0.502s-0.662-0.148-1.232-0.148H38.416z"/>
		<path fill="#FFFFFF" d="M44.104,75.42h0.822v0.913c0.245-0.359,0.504-0.629,0.776-0.807c0.272-0.179,0.555-0.268,0.851-0.268
			c0.222,0,0.459,0.071,0.712,0.213l-0.419,0.678c-0.169-0.072-0.311-0.109-0.425-0.109c-0.268,0-0.527,0.11-0.776,0.331
			c-0.249,0.22-0.438,0.562-0.569,1.025c-0.1,0.356-0.149,1.076-0.149,2.161v2.114h-0.822V75.42z"/>
		<path fill="#FFFFFF" d="M48.228,72.846c0.183,0,0.339,0.064,0.469,0.195c0.13,0.13,0.195,0.287,0.195,0.471
			c0,0.181-0.065,0.336-0.195,0.466c-0.129,0.13-0.286,0.195-0.469,0.195c-0.18,0-0.334-0.065-0.464-0.195
			c-0.129-0.13-0.194-0.285-0.194-0.466c0-0.184,0.065-0.341,0.194-0.471C47.894,72.91,48.048,72.846,48.228,72.846z M47.828,75.42
			h0.804v6.252h-0.804V75.42z"/>
		<path fill="#FFFFFF" d="M49.713,75.42h0.856l2.099,4.558l2.073-4.558h0.862l-2.862,6.252h-0.149L49.713,75.42z"/>
		<path fill="#FFFFFF" d="M63.056,75.42v6.252h-0.793v-1.074c-0.337,0.409-0.715,0.718-1.135,0.925s-0.878,0.311-1.376,0.311
			c-0.885,0-1.641-0.321-2.267-0.963c-0.626-0.642-0.939-1.422-0.939-2.342c0-0.9,0.316-1.67,0.948-2.31
			c0.632-0.64,1.393-0.96,2.281-0.96c0.513,0,0.978,0.109,1.394,0.328c0.416,0.218,0.781,0.546,1.095,0.982V75.42H63.056z
			 M59.841,76.034c-0.448,0-0.861,0.11-1.24,0.33c-0.379,0.221-0.68,0.529-0.904,0.928c-0.224,0.397-0.336,0.818-0.336,1.263
			c0,0.439,0.113,0.86,0.339,1.263c0.226,0.401,0.529,0.715,0.91,0.938s0.789,0.336,1.226,0.336c0.44,0,0.857-0.111,1.251-0.333
			c0.394-0.223,0.697-0.522,0.91-0.901c0.212-0.379,0.318-0.806,0.318-1.28c0-0.723-0.238-1.327-0.715-1.813
			C61.124,76.277,60.537,76.034,59.841,76.034z"/>
		<path fill="#FFFFFF" d="M65.567,73.099h0.804v2.321h1.276v0.695h-1.276v5.557h-0.804v-5.557h-1.098V75.42h1.098V73.099z"/>
		<path fill="#FFFFFF" d="M74.117,79.598l0.678,0.356c-0.223,0.437-0.479,0.789-0.771,1.057c-0.292,0.269-0.619,0.473-0.983,0.612
			s-0.776,0.21-1.237,0.21c-1.02,0-1.817-0.334-2.393-1.003s-0.863-1.424-0.863-2.267c0-0.793,0.244-1.5,0.73-2.121
			c0.617-0.789,1.444-1.184,2.479-1.184c1.066,0,1.917,0.404,2.554,1.213c0.452,0.57,0.683,1.283,0.69,2.138h-5.625
			c0.015,0.726,0.247,1.321,0.696,1.785c0.449,0.465,1.003,0.697,1.663,0.697c0.318,0,0.628-0.056,0.929-0.166
			c0.301-0.111,0.557-0.258,0.768-0.441C73.644,80.302,73.872,80.006,74.117,79.598z M74.117,77.914
			c-0.107-0.43-0.264-0.772-0.469-1.029c-0.206-0.256-0.477-0.463-0.814-0.62s-0.692-0.235-1.064-0.235
			c-0.614,0-1.141,0.197-1.582,0.592c-0.322,0.287-0.566,0.718-0.73,1.293H74.117z"/>
		<path fill="#FFFFFF" d="M79.893,73.219h0.845v7.637h3.253v0.816h-4.098V73.219z"/>
		<path fill="#FFFFFF" d="M85.475,72.846c0.184,0,0.34,0.064,0.469,0.195c0.131,0.13,0.195,0.287,0.195,0.471
			c0,0.181-0.064,0.336-0.195,0.466c-0.129,0.13-0.285,0.195-0.469,0.195c-0.18,0-0.334-0.065-0.463-0.195
			c-0.13-0.13-0.195-0.285-0.195-0.466c0-0.184,0.065-0.341,0.195-0.471C85.141,72.91,85.295,72.846,85.475,72.846z M85.076,75.42
			h0.804v6.252h-0.804V75.42z"/>
		<path fill="#FFFFFF" d="M87.547,75.42h0.805v1.08c0.279-0.398,0.566-0.689,0.862-0.873c0.407-0.245,0.835-0.368,1.282-0.368
			c0.305,0,0.592,0.06,0.863,0.179c0.273,0.118,0.496,0.276,0.668,0.474s0.322,0.479,0.449,0.848
			c0.268-0.49,0.602-0.863,1.002-1.118c0.402-0.254,0.834-0.382,1.297-0.382c0.432,0,0.813,0.109,1.143,0.328
			c0.33,0.218,0.576,0.522,0.736,0.913c0.162,0.391,0.242,0.977,0.242,1.759v3.413h-0.822v-3.413c0-0.671-0.049-1.131-0.143-1.382
			c-0.096-0.251-0.26-0.453-0.49-0.606s-0.508-0.23-0.828-0.23c-0.389,0-0.746,0.115-1.068,0.345
			c-0.322,0.23-0.559,0.537-0.707,0.92s-0.223,1.022-0.223,1.919v2.448h-0.805v-3.201c0-0.754-0.047-1.267-0.141-1.537
			c-0.094-0.27-0.258-0.486-0.492-0.649c-0.232-0.162-0.512-0.244-0.834-0.244c-0.371,0-0.719,0.112-1.042,0.337
			c-0.323,0.224-0.563,0.525-0.718,0.904c-0.155,0.38-0.232,0.96-0.232,1.741v2.649h-0.805V75.42z"/>
		<path fill="#FFFFFF" d="M98.869,72.846c0.184,0,0.34,0.064,0.471,0.195c0.129,0.13,0.193,0.287,0.193,0.471
			c0,0.181-0.064,0.336-0.193,0.466c-0.131,0.13-0.287,0.195-0.471,0.195c-0.178,0-0.332-0.065-0.463-0.195
			c-0.129-0.13-0.193-0.285-0.193-0.466c0-0.184,0.064-0.341,0.193-0.471C98.537,72.91,98.691,72.846,98.869,72.846z M98.471,75.42
			h0.805v6.252h-0.805V75.42z"/>
		<path fill="#FFFFFF" d="M101.648,73.099h0.805v2.321h1.275v0.695h-1.275v5.557h-0.805v-5.557h-1.098V75.42h1.098V73.099z"/>
		<path fill="#FFFFFF" d="M110.199,79.598l0.678,0.356c-0.221,0.437-0.479,0.789-0.77,1.057c-0.291,0.269-0.619,0.473-0.984,0.612
			c-0.363,0.14-0.775,0.21-1.236,0.21c-1.02,0-1.816-0.334-2.393-1.003c-0.574-0.669-0.863-1.424-0.863-2.267
			c0-0.793,0.244-1.5,0.73-2.121c0.617-0.789,1.443-1.184,2.479-1.184c1.066,0,1.918,0.404,2.555,1.213
			c0.453,0.57,0.682,1.283,0.689,2.138h-5.625c0.016,0.726,0.248,1.321,0.695,1.785c0.449,0.465,1.004,0.697,1.664,0.697
			c0.318,0,0.627-0.056,0.928-0.166c0.303-0.111,0.559-0.258,0.77-0.441C109.727,80.302,109.955,80.006,110.199,79.598z
			 M110.199,77.914c-0.107-0.43-0.264-0.772-0.469-1.029c-0.205-0.256-0.477-0.463-0.814-0.62s-0.691-0.235-1.064-0.235
			c-0.613,0-1.141,0.197-1.582,0.592c-0.322,0.287-0.564,0.718-0.73,1.293H110.199z"/>
		<path fill="#FFFFFF" d="M118.824,73.006v8.666h-0.793v-1.074c-0.336,0.409-0.715,0.718-1.135,0.925
			c-0.418,0.207-0.877,0.311-1.375,0.311c-0.885,0-1.641-0.321-2.268-0.963s-0.939-1.422-0.939-2.342c0-0.9,0.316-1.67,0.947-2.31
			c0.633-0.64,1.393-0.96,2.281-0.96c0.514,0,0.979,0.109,1.395,0.328c0.416,0.218,0.781,0.546,1.094,0.982v-3.563H118.824z
			 M115.609,76.034c-0.447,0-0.861,0.11-1.238,0.33c-0.379,0.221-0.682,0.529-0.904,0.928c-0.225,0.397-0.336,0.818-0.336,1.263
			c0,0.439,0.113,0.86,0.338,1.263c0.227,0.401,0.529,0.715,0.91,0.938s0.789,0.336,1.225,0.336c0.441,0,0.857-0.111,1.252-0.333
			c0.395-0.223,0.697-0.522,0.91-0.901c0.211-0.379,0.318-0.806,0.318-1.28c0-0.723-0.238-1.327-0.715-1.813
			S116.307,76.034,115.609,76.034z"/>
	</g>
	<g>
		<g>
			<path fill="#FFFFFF" d="M6.547,20.752c0.945-0.002,1.75,0.299,2.428,0.909c0.676,0.61,1.011,1.349,1.018,2.219
				c0,0.857-0.326,1.591-0.989,2.2C8.343,26.69,7.55,26.995,6.617,27c-0.952,0.004-1.77-0.301-2.446-0.92
				c-0.674-0.614-1.013-1.361-1.021-2.241c0-0.846,0.325-1.575,0.991-2.177C4.803,21.061,5.606,20.755,6.547,20.752z M3.905,28.668
				l5.366-0.02l0.093,19.198L4,47.868L3.905,28.668z"/>
			<path fill="#FFFFFF" d="M72.301,31.084l-3.306,2.994c-1.355-1.194-2.585-1.79-3.689-1.787c-0.601,0.004-1.064,0.119-1.406,0.352
				c-0.344,0.231-0.508,0.518-0.508,0.855c0,0.26,0.112,0.502,0.33,0.713c0.215,0.219,0.747,0.514,1.604,0.888l1.968,0.873
				c2.075,0.911,3.499,1.842,4.28,2.79c0.784,0.953,1.172,2.065,1.179,3.348c0.002,1.706-0.684,3.131-2.075,4.279
				c-1.389,1.144-3.264,1.723-5.605,1.732c-3.116,0.015-5.613-1.069-7.481-3.252l3.286-3.242c0.632,0.654,1.372,1.187,2.212,1.587
				c0.857,0.402,1.604,0.603,2.261,0.602c0.708-0.004,1.277-0.157,1.704-0.468c0.432-0.305,0.645-0.66,0.642-1.058
				c-0.005-0.744-0.786-1.465-2.341-2.165l-1.816-0.803c-3.466-1.551-5.21-3.506-5.22-5.854c-0.01-1.519,0.637-2.82,1.938-3.9
				c1.298-1.081,2.964-1.627,4.996-1.635c1.387-0.006,2.698,0.264,3.926,0.809C70.407,29.278,71.442,30.061,72.301,31.084z"/>
			<path fill="#FFFFFF" d="M90.012,31.013l-3.307,2.996c-1.357-1.195-2.582-1.791-3.686-1.789c-0.599,0.005-1.074,0.12-1.414,0.354
				c-0.334,0.229-0.506,0.517-0.503,0.854c0,0.259,0.107,0.497,0.322,0.718c0.225,0.212,0.757,0.51,1.611,0.884l1.973,0.873
				c2.07,0.91,3.493,1.839,4.274,2.789c0.779,0.952,1.172,2.065,1.178,3.347c0.01,1.707-0.68,3.133-2.073,4.277
				c-1.387,1.146-3.259,1.723-5.603,1.735c-3.118,0.013-5.613-1.069-7.488-3.251l3.291-3.242c0.635,0.654,1.369,1.184,2.217,1.587
				c0.852,0.402,1.597,0.601,2.256,0.601c0.708-0.003,1.271-0.157,1.707-0.465c0.432-0.308,0.642-0.663,0.642-1.063
				c-0.005-0.742-0.788-1.461-2.349-2.159l-1.812-0.809c-3.469-1.55-5.208-3.503-5.22-5.855c-0.01-1.518,0.64-2.814,1.936-3.898
				c1.304-1.081,2.966-1.624,5.002-1.633c1.382-0.005,2.695,0.262,3.919,0.804C88.119,29.212,89.156,29.991,90.012,31.013z"/>
			<path fill="#FFFFFF" d="M94.604,28.315l5.422-0.023l0.047,9.249c0.01,1.796,0.154,3.045,0.43,3.744
				c0.281,0.699,0.725,1.245,1.344,1.628c0.607,0.385,1.363,0.574,2.25,0.573c0.9,0,1.66-0.194,2.277-0.583
				c0.619-0.382,1.082-0.947,1.385-1.691c0.215-0.552,0.322-1.736,0.318-3.545l-0.049-9.404l5.367-0.023l0.035,8.134
				c0.014,3.354-0.27,5.648-0.848,6.882c-0.713,1.512-1.768,2.671-3.166,3.484c-1.402,0.808-3.18,1.218-5.344,1.227
				c-2.344,0.011-4.246-0.453-5.693-1.388c-1.453-0.937-2.48-2.241-3.08-3.921c-0.424-1.163-0.645-3.282-0.66-6.353L94.604,28.315z"
				/>
			<path fill="#FFFFFF" d="M117.523,28.223l4.598-0.019l0.014,2.417c0.492-0.955,1.15-1.68,1.969-2.181
				c0.824-0.496,1.73-0.745,2.713-0.747c0.693-0.005,1.422,0.159,2.188,0.485l-1.656,4.15c-0.625-0.276-1.15-0.418-1.547-0.415
				c-0.834,0.003-1.531,0.465-2.094,1.384c-0.566,0.921-0.842,2.721-0.83,5.404l0.027,0.937l0.031,7.762l-5.318,0.018
				L117.523,28.223z"/>
			<path fill="#FFFFFF" d="M153.137,39.078l-17.244,0.063c0.256,1.364,0.926,2.446,2.018,3.249c1.078,0.804,2.463,1.2,4.137,1.194
				c2.008-0.008,3.729-0.645,5.16-1.91l4.535,1.891c-1.123,1.439-2.465,2.504-4.037,3.198c-1.568,0.695-3.434,1.046-5.594,1.055
				c-3.357,0.012-6.094-0.931-8.211-2.817c-2.119-1.891-3.186-4.268-3.203-7.123c-0.014-2.934,1.027-5.365,3.117-7.313
				c2.098-1.941,4.732-2.92,7.904-2.93c3.363-0.015,6.105,0.944,8.229,2.87c2.117,1.923,3.189,4.478,3.203,7.652L153.137,39.078z
				 M147.748,35.303c-0.361-1.068-1.064-1.934-2.111-2.604c-1.043-0.664-2.256-0.993-3.635-0.988
				c-1.5,0.005-2.809,0.388-3.936,1.145c-0.701,0.474-1.352,1.307-1.953,2.495L147.748,35.303z"/>
		</g>
	</g>
	<g>
		<g>
			<path fill="#FFFFFF" d="M152.984,53.621H52.937l-0.749-1.104C51.65,51.729,41.75,36.912,37.11,19.769
				c-4.646,17.144-14.552,31.961-15.083,32.749l-0.741,1.104H3.752v-4.59h14.62c3.091-4.894,15.201-25.186,15.959-43.667
				l0.085-2.214h5.378l0.089,2.214c0.753,18.481,12.862,38.773,15.958,43.667h97.141V53.621z"/>
		</g>
	</g>
	<g>
		<path fill-rule="evenodd" clip-rule="evenodd" fill="#202C6C" d="M20.24,53.738c-0.254-0.925-0.491-1.816-0.741-2.703
			c-0.744-2.692-1.471-5.388-2.272-8.073c-0.236-0.811-0.653-1.587-1.071-2.345c-0.599-1.107-1.424-2.046-2.757-2.622
			c2.483-1.835,4.928-3.646,7.366-5.454c2.358,2.572,3.308,5.643,4.004,8.896c0.259-0.228,0.425-0.379,0.598-0.537
			c4.048-3.751,8.357-7.249,13.044-10.347c4.88-3.226,10.098-5.917,15.603-8.179c4.541-1.86,9.207-3.436,13.904-4.944
			c0.112-0.039,0.225-0.065,0.378-0.035c-0.183,0.099-0.361,0.194-0.54,0.289c-3.501,1.824-7.029,3.599-10.486,5.491
			c-5.352,2.932-10.381,6.274-15.117,9.975c-6.296,4.915-12.009,10.348-17.495,15.979C23.187,50.643,21.741,52.174,20.24,53.738z"/>
		<path fill="#FFFFFF" d="M19.876,55.152l-0.336-1.225c-0.106-0.39-0.208-0.771-0.309-1.152c-0.137-0.521-0.278-1.034-0.422-1.549
			c-0.193-0.687-0.388-1.378-0.573-2.07c-0.543-1.966-1.102-3.997-1.695-5.984c-0.215-0.711-0.587-1.426-1.016-2.213
			c-0.609-1.124-1.373-1.856-2.408-2.302l-1.151-0.497l1.008-0.745c1.237-0.913,2.467-1.826,3.689-2.73
			c1.234-0.912,2.451-1.816,3.677-2.719l0.518-0.386l0.439,0.477c2.212,2.407,3.232,5.236,3.901,8.021
			c4.281-3.942,8.477-7.26,12.82-10.127c4.743-3.132,10.031-5.906,15.725-8.239c4.829-1.978,9.761-3.623,13.953-4.971
			c0.127-0.039,0.278-0.078,0.471-0.078c0.09,0,0.186,0.013,0.281,0.029l1.943,0.417l-1.868,0.979
			c-0.149,0.082-0.293,0.158-0.442,0.234c-1.069,0.56-2.17,1.126-3.235,1.675c-2.381,1.23-4.848,2.504-7.227,3.809
			c-5.194,2.847-10.249,6.18-15.021,9.909c-5.496,4.293-11.03,9.352-17.426,15.916c-1.011,1.04-1.995,2.067-3.032,3.153
			c-0.459,0.481-0.923,0.963-1.382,1.449L19.876,55.152z M14.728,37.908c0.83,0.575,1.517,1.355,2.065,2.366
			c0.461,0.858,0.873,1.637,1.126,2.482c0.595,2.005,1.155,4.048,1.703,6.021c0.188,0.687,0.378,1.375,0.571,2.065
			c0.134,0.491,0.269,0.979,0.404,1.478c0.167-0.176,0.337-0.352,0.501-0.525c1.042-1.094,2.026-2.124,3.047-3.166
			c6.437-6.615,12.019-11.715,17.566-16.048c4.834-3.774,9.955-7.153,15.219-10.039c1.09-0.598,2.198-1.192,3.311-1.771
			c-1.959,0.701-3.966,1.456-5.956,2.271c-5.601,2.301-10.811,5.029-15.474,8.11c-4.385,2.897-8.619,6.257-12.955,10.274
			c-0.175,0.16-0.354,0.323-0.613,0.551l-0.926,0.808l-0.254-1.201c-0.587-2.775-1.417-5.652-3.401-8.068
			c-1.047,0.773-2.09,1.548-3.145,2.323C16.59,36.526,15.662,37.218,14.728,37.908z"/>
	</g>
</g>
<g id="Font" display="none">
	<g display="inline">
		<text transform="matrix(1 0 0 1 170.4004 67.5498)"><tspan x="0" y="0" fill="#333333" font-family="'CenturyGothic'" font-size="11.7686">International Technologies</tspan><tspan x="33.397" y="14.122" fill="#333333" font-family="'CenturyGothic'" font-size="11.7686">Private Limited</tspan></text>
	</g>
	<g display="inline">
		<text transform="matrix(1 0 0 1 3.1499 67.5498)"><tspan x="0" y="0" fill="#FFFFFF" font-family="'CenturyGothic'" font-size="11.7686">International Technologies</tspan><tspan x="33.398" y="14.122" fill="#FFFFFF" font-family="'CenturyGothic'" font-size="11.7686">Private Limited</tspan></text>
	</g>
</g>
</svg>
