<?xml version="1.0" encoding="utf-8"?>
<!-- Generator: Adobe Illustrator 27.9.0, SVG Export Plug-In . SVG Version: 6.00 Build 0)  -->
<svg version="1.1" id="Layer_1" xmlns="http://www.w3.org/2000/svg" xmlns:xlink="http://www.w3.org/1999/xlink" x="0px" y="0px"
	 viewBox="0 0 62 62" style="enable-background:new 0 0 62 62;" xml:space="preserve">
<style type="text/css">
	.st0{fill:#376BFF;}
	.st1{fill-rule:evenodd;clip-rule:evenodd;fill:#153FB3;}
	.st2{fill:#FFFFFF;}
</style>
<g>
	<g>
		<path class="st0" d="M59.75,52.66H45.8l-0.66-0.98c-0.48-0.7-9.24-13.82-13.35-28.99c-4.11,15.18-12.88,28.3-13.35,28.99
			l-0.66,0.98H2.25V48.6h12.94c2.74-4.33,13.46-22.3,14.13-38.66l0.08-1.96h4.76l0.08,1.96C34.91,26.3,45.63,44.27,48.37,48.6h11.38
			V52.66z"/>
	</g>
	<g>
		<path class="st1" d="M16.85,52.77c-0.22-0.82-0.43-1.61-0.66-2.39c-0.66-2.38-1.3-4.77-2.01-7.15c-0.21-0.72-0.58-1.4-0.95-2.08
			c-0.53-0.98-1.26-1.81-2.44-2.32c2.2-1.62,4.36-3.23,6.52-4.83c2.09,2.28,2.93,5,3.54,7.88c0.23-0.2,0.38-0.34,0.53-0.48
			c3.58-3.32,7.4-6.42,11.55-9.16C37.26,29.38,41.88,27,46.75,25c4.02-1.65,8.15-3.04,12.31-4.38c0.1-0.03,0.2-0.06,0.34-0.03
			c-0.16,0.09-0.32,0.17-0.48,0.26c-3.1,1.62-6.22,3.19-9.28,4.86c-4.74,2.6-9.19,5.56-13.38,8.83
			c-5.57,4.35-10.63,9.16-15.49,14.15C19.46,50.03,18.18,51.38,16.85,52.77z"/>
		<path class="st2" d="M16.53,54.02l-0.3-1.08c-0.09-0.34-0.18-0.68-0.27-1.02c-0.12-0.46-0.25-0.92-0.37-1.37
			c-0.17-0.61-0.34-1.22-0.51-1.83c-0.48-1.74-0.98-3.54-1.5-5.3c-0.19-0.63-0.52-1.26-0.9-1.96c-0.54-1-1.22-1.64-2.13-2.04
			l-1.02-0.44l0.89-0.66c1.1-0.81,2.18-1.62,3.27-2.42c1.09-0.81,2.17-1.61,3.26-2.41l0.46-0.34l0.39,0.42
			c1.96,2.13,2.86,4.64,3.45,7.1c3.79-3.49,7.5-6.43,11.35-8.97c4.2-2.77,8.88-5.23,13.92-7.29c4.28-1.75,8.64-3.21,12.35-4.4
			c0.11-0.03,0.25-0.07,0.42-0.07c0.08,0,0.16,0.01,0.25,0.03l1.72,0.37l-1.65,0.87c-0.13,0.07-0.26,0.14-0.39,0.21
			c-0.95,0.5-1.92,1-2.86,1.48c-2.11,1.09-4.29,2.22-6.4,3.37c-4.6,2.52-9.07,5.47-13.3,8.77c-4.87,3.8-9.77,8.28-15.43,14.09
			c-0.89,0.92-1.77,1.83-2.68,2.79c-0.41,0.43-0.82,0.85-1.22,1.28L16.53,54.02z M11.97,38.75c0.73,0.51,1.34,1.2,1.83,2.09
			c0.41,0.76,0.77,1.45,1,2.2c0.53,1.78,1.02,3.58,1.51,5.33c0.17,0.61,0.34,1.22,0.51,1.83c0.12,0.43,0.24,0.87,0.36,1.31
			c0.15-0.16,0.3-0.31,0.44-0.47c0.92-0.97,1.79-1.88,2.7-2.8c5.7-5.86,10.64-10.37,15.55-14.21c4.28-3.34,8.81-6.33,13.47-8.89
			c0.96-0.53,1.95-1.06,2.93-1.57c-1.73,0.62-3.51,1.29-5.27,2.01c-4.96,2.04-9.57,4.45-13.7,7.18c-3.88,2.57-7.63,5.54-11.47,9.1
			c-0.15,0.14-0.31,0.29-0.54,0.49l-0.82,0.72l-0.22-1.06c-0.52-2.46-1.25-5-3.01-7.14c-0.93,0.68-1.85,1.37-2.78,2.06
			C13.62,37.53,12.79,38.14,11.97,38.75z"/>
	</g>
</g>
</svg>
