<?xml version="1.0" encoding="utf-8"?>
<!-- Generator: Adobe Illustrator 27.9.0, SVG Export Plug-In . SVG Version: 6.00 Build 0)  -->
<svg version="1.1" id="Layer_1" xmlns="http://www.w3.org/2000/svg" xmlns:xlink="http://www.w3.org/1999/xlink" x="0px" y="0px"
	 viewBox="0 0 62 62" style="enable-background:new 0 0 62 62;" xml:space="preserve">
<style type="text/css">
	.st0{fill:#376BFF;}
	.st1{fill:#FFFFFF;}
	.st2{fill-rule:evenodd;clip-rule:evenodd;fill:#153FB3;}
</style>
<g>
	<circle class="st0" cx="31" cy="31" r="29"/>
	<g>
		<g>
			<path class="st1" d="M50.32,45.48h-9.63l-0.46-0.67c-0.33-0.48-6.38-9.54-9.21-20.01c-2.84,10.47-8.89,19.53-9.22,20.01
				l-0.45,0.67H10.64v-2.8h8.93c1.89-2.99,9.29-15.39,9.75-26.68l0.05-1.35h3.29L32.72,16c0.46,11.29,7.86,23.69,9.75,26.68h7.85
				V45.48z"/>
		</g>
		<g>
			<path class="st2" d="M20.72,45.56c-0.16-0.57-0.3-1.11-0.45-1.65c-0.45-1.65-0.9-3.29-1.39-4.93c-0.14-0.5-0.4-0.97-0.65-1.43
				c-0.37-0.68-0.87-1.25-1.68-1.6c1.52-1.12,3.01-2.23,4.5-3.33c1.44,1.57,2.02,3.45,2.45,5.44c0.16-0.14,0.26-0.23,0.37-0.33
				c2.47-2.29,5.11-4.43,7.97-6.32c2.98-1.97,6.17-3.62,9.53-5c2.77-1.14,5.63-2.1,8.5-3.02c0.07-0.02,0.14-0.04,0.23-0.02
				c-0.11,0.06-0.22,0.12-0.33,0.18c-2.14,1.11-4.3,2.2-6.41,3.36c-3.27,1.79-6.34,3.83-9.24,6.09c-3.85,3-7.34,6.32-10.69,9.76
				C22.52,43.66,21.63,44.6,20.72,45.56z"/>
			<path class="st1" d="M20.49,46.42l-0.21-0.75c-0.06-0.24-0.13-0.47-0.19-0.7c-0.08-0.32-0.17-0.63-0.26-0.95
				c-0.12-0.42-0.24-0.84-0.35-1.26c-0.33-1.2-0.67-2.44-1.04-3.66c-0.13-0.43-0.36-0.87-0.62-1.35c-0.37-0.69-0.84-1.13-1.47-1.41
				l-0.7-0.3l0.62-0.46c0.76-0.56,1.51-1.12,2.25-1.67c0.75-0.56,1.5-1.11,2.25-1.66l0.32-0.24l0.27,0.29
				c1.35,1.47,1.98,3.2,2.38,4.9c2.62-2.41,5.18-4.44,7.83-6.19c2.9-1.91,6.13-3.61,9.61-5.03c2.95-1.21,5.96-2.21,8.53-3.04
				c0.08-0.02,0.17-0.05,0.29-0.05c0.06,0,0.11,0.01,0.17,0.02l1.19,0.25l-1.14,0.6c-0.09,0.05-0.18,0.1-0.27,0.14
				c-0.65,0.34-1.33,0.69-1.98,1.02c-1.45,0.75-2.96,1.53-4.42,2.33c-3.17,1.74-6.26,3.78-9.18,6.05
				c-3.36,2.62-6.74,5.71-10.65,9.72c-0.62,0.64-1.22,1.26-1.85,1.93c-0.28,0.29-0.56,0.59-0.84,0.89L20.49,46.42z M17.35,35.88
				c0.51,0.35,0.93,0.83,1.26,1.45c0.28,0.52,0.53,1,0.69,1.52c0.36,1.23,0.71,2.47,1.04,3.68c0.11,0.42,0.23,0.84,0.35,1.26
				c0.08,0.3,0.16,0.6,0.25,0.9c0.1-0.11,0.21-0.21,0.31-0.32c0.64-0.67,1.24-1.3,1.86-1.93c3.93-4.04,7.34-7.16,10.73-9.81
				c2.95-2.31,6.08-4.37,9.3-6.13c0.67-0.37,1.34-0.73,2.02-1.08c-1.2,0.43-2.42,0.89-3.64,1.39c-3.42,1.41-6.61,3.07-9.45,4.96
				c-2.68,1.77-5.27,3.82-7.92,6.28c-0.11,0.1-0.22,0.2-0.37,0.34l-0.57,0.49l-0.16-0.73c-0.36-1.7-0.87-3.45-2.08-4.93
				c-0.64,0.47-1.28,0.95-1.92,1.42C18.49,35.04,17.92,35.46,17.35,35.88z"/>
		</g>
	</g>
</g>
</svg>
