<?xml version="1.0" encoding="utf-8"?>
<!-- Generator: Adobe Illustrator 27.9.0, SVG Export Plug-In . SVG Version: 6.00 Build 0)  -->
<svg version="1.1" id="Layer_1" xmlns="http://www.w3.org/2000/svg" xmlns:xlink="http://www.w3.org/1999/xlink" x="0px" y="0px"
	 viewBox="0 0 320 177.37" style="enable-background:new 0 0 320 177.37;" xml:space="preserve">
<style type="text/css">
	.st0{fill:#376BFF;}
	.st1{fill-rule:evenodd;clip-rule:evenodd;fill:#153FB3;}
	.st2{fill:#FFFFFF;}
	.st3{fill:#333333;}
</style>
<g>
	<g>
		<path class="st0" d="M16.79,45.05c1.89,0,3.5,0.6,4.86,1.82c1.35,1.22,2.02,2.7,2.04,4.44c0,1.71-0.65,3.18-1.98,4.4
			c-1.32,1.22-2.91,1.83-4.78,1.84c-1.9,0.01-3.54-0.6-4.89-1.84c-1.35-1.23-2.03-2.72-2.04-4.48c0-1.69,0.65-3.15,1.98-4.35
			C13.31,45.67,14.91,45.06,16.79,45.05z M11.51,60.89l10.73-0.04l0.19,38.4L11.7,99.29L11.51,60.89z"/>
		<path class="st0" d="M148.3,65.72l-6.61,5.99c-2.71-2.39-5.17-3.58-7.38-3.57c-1.2,0.01-2.13,0.24-2.81,0.7
			c-0.69,0.46-1.02,1.04-1.02,1.71c0,0.52,0.22,1,0.66,1.43c0.43,0.44,1.49,1.03,3.21,1.78l3.94,1.75c4.15,1.82,7,3.68,8.56,5.58
			c1.57,1.91,2.34,4.13,2.36,6.7c0.01,3.41-1.37,6.26-4.15,8.56c-2.78,2.29-6.53,3.45-11.21,3.46c-6.23,0.03-11.23-2.14-14.96-6.5
			l6.57-6.48c1.26,1.31,2.74,2.37,4.42,3.17c1.71,0.8,3.21,1.2,4.52,1.2c1.42-0.01,2.55-0.31,3.41-0.94
			c0.86-0.61,1.29-1.32,1.28-2.12c-0.01-1.49-1.57-2.93-4.68-4.33l-3.63-1.61c-6.93-3.1-10.42-7.01-10.44-11.71
			c-0.02-3.04,1.27-5.64,3.88-7.8c2.6-2.16,5.93-3.25,9.99-3.27c2.77-0.01,5.4,0.53,7.85,1.62
			C144.51,62.11,146.58,63.67,148.3,65.72z"/>
		<path class="st0" d="M183.72,65.57l-6.61,5.99c-2.71-2.39-5.16-3.58-7.37-3.58c-1.2,0.01-2.15,0.24-2.83,0.71
			c-0.67,0.46-1.01,1.03-1.01,1.71c0,0.52,0.22,0.99,0.64,1.44c0.45,0.42,1.51,1.02,3.22,1.77l3.95,1.75
			c4.14,1.82,6.99,3.68,8.55,5.58c1.56,1.9,2.34,4.13,2.36,6.69c0.02,3.41-1.36,6.27-4.15,8.55c-2.77,2.29-6.52,3.45-11.2,3.47
			c-6.24,0.03-11.23-2.14-14.98-6.5l6.58-6.48c1.27,1.31,2.74,2.37,4.43,3.17c1.7,0.8,3.19,1.2,4.51,1.2
			c1.42-0.01,2.54-0.31,3.41-0.93c0.86-0.62,1.28-1.33,1.28-2.12c-0.01-1.48-1.58-2.92-4.7-4.32l-3.62-1.62
			c-6.94-3.1-10.42-7.01-10.44-11.71c-0.02-3.04,1.28-5.63,3.87-7.8c2.61-2.16,5.93-3.25,10-3.27c2.76-0.01,5.39,0.52,7.84,1.61
			C179.94,61.97,182.01,63.53,183.72,65.57z"/>
		<path class="st0" d="M192.91,60.18l10.84-0.05l0.09,18.5c0.02,3.59,0.31,6.09,0.86,7.49c0.56,1.4,1.45,2.49,2.69,3.26
			c1.21,0.77,2.73,1.15,4.5,1.15c1.8,0,3.32-0.39,4.55-1.17c1.24-0.76,2.16-1.89,2.77-3.38c0.43-1.1,0.64-3.47,0.64-7.09l-0.1-18.81
			l10.73-0.05l0.07,16.27c0.03,6.71-0.54,11.3-1.7,13.76c-1.43,3.02-3.54,5.34-6.33,6.97c-2.8,1.62-6.36,2.44-10.69,2.45
			c-4.69,0.02-8.49-0.91-11.39-2.78c-2.91-1.87-4.96-4.48-6.16-7.84c-0.85-2.33-1.29-6.56-1.32-12.71L192.91,60.18z"/>
		<path class="st0" d="M238.75,59.99l9.2-0.04l0.03,4.83c0.98-1.91,2.3-3.36,3.94-4.36c1.65-0.99,3.46-1.49,5.43-1.49
			c1.39-0.01,2.84,0.32,4.38,0.97l-3.31,8.3c-1.25-0.55-2.3-0.84-3.09-0.83c-1.67,0.01-3.06,0.93-4.19,2.77
			c-1.13,1.84-1.68,5.44-1.66,10.81l0.05,1.87l0.06,15.52l-10.64,0.04L238.75,59.99z"/>
		<path class="st0" d="M309.97,81.71l-34.49,0.13c0.51,2.73,1.85,4.89,4.04,6.5c2.16,1.61,4.93,2.4,8.27,2.39
			c4.02-0.02,7.46-1.29,10.32-3.82l9.07,3.78c-2.25,2.88-4.93,5.01-8.07,6.4c-3.14,1.39-6.87,2.09-11.19,2.11
			c-6.71,0.02-12.19-1.86-16.42-5.63c-4.24-3.78-6.37-8.54-6.41-14.25c-0.03-5.87,2.05-10.73,6.23-14.63
			c4.2-3.88,9.46-5.84,15.81-5.86c6.73-0.03,12.21,1.89,16.46,5.74c4.23,3.85,6.38,8.96,6.41,15.3L309.97,81.71z M299.2,74.15
			c-0.72-2.14-2.13-3.87-4.22-5.21c-2.09-1.33-4.51-1.99-7.27-1.98c-3,0.01-5.62,0.78-7.87,2.29c-1.4,0.95-2.7,2.61-3.91,4.99
			L299.2,74.15z"/>
	</g>
	<g>
		<path class="st0" d="M309.67,110.79H109.57l-1.5-2.21c-1.08-1.58-20.88-31.21-30.16-65.5c-9.29,34.29-29.1,63.92-30.17,65.5
			l-1.48,2.21H11.2v-9.18h29.24c6.18-9.79,30.4-50.37,31.92-87.33l0.17-4.43h10.76l0.18,4.43c1.51,36.96,25.72,77.55,31.92,87.33
			h194.28V110.79z"/>
	</g>
	<g>
		<path class="st1" d="M44.18,111.03c-0.51-1.85-0.98-3.63-1.48-5.41c-1.49-5.38-2.94-10.78-4.54-16.15
			c-0.47-1.62-1.31-3.17-2.14-4.69c-1.2-2.21-2.85-4.09-5.51-5.24c4.97-3.67,9.86-7.29,14.73-10.91c4.72,5.14,6.62,11.29,8.01,17.79
			c0.52-0.46,0.85-0.76,1.2-1.07c8.1-7.5,16.71-14.5,26.09-20.69c9.76-6.45,20.2-11.83,31.21-16.36c9.08-3.72,18.41-6.87,27.81-9.89
			c0.22-0.08,0.45-0.13,0.76-0.07c-0.37,0.2-0.72,0.39-1.08,0.58c-7,3.65-14.06,7.2-20.97,10.98c-10.7,5.86-20.76,12.55-30.23,19.95
			c-12.59,9.83-24.02,20.7-34.99,31.96C50.07,104.83,47.18,107.9,44.18,111.03z"/>
		<path class="st2" d="M43.45,113.85l-0.67-2.45c-0.21-0.78-0.42-1.54-0.62-2.3c-0.27-1.04-0.56-2.07-0.84-3.1
			c-0.39-1.37-0.78-2.76-1.15-4.14c-1.09-3.93-2.2-7.99-3.39-11.97c-0.43-1.42-1.17-2.85-2.03-4.43c-1.22-2.25-2.75-3.71-4.82-4.6
			l-2.3-0.99l2.02-1.49c2.47-1.83,4.93-3.65,7.38-5.46c2.47-1.82,4.9-3.63,7.35-5.44l1.04-0.77l0.88,0.95
			c4.42,4.81,6.46,10.47,7.8,16.04c8.56-7.88,16.95-14.52,25.64-20.25c9.49-6.26,20.06-11.81,31.45-16.48
			c9.66-3.95,19.52-7.25,27.91-9.94c0.25-0.08,0.56-0.16,0.94-0.16c0.18,0,0.37,0.03,0.56,0.06l3.89,0.83l-3.74,1.96
			c-0.3,0.16-0.59,0.32-0.88,0.47c-2.14,1.12-4.34,2.25-6.47,3.35c-4.76,2.46-9.7,5.01-14.45,7.62
			c-10.39,5.69-20.5,12.36-30.04,19.82c-10.99,8.59-22.06,18.7-34.85,31.83c-2.02,2.08-3.99,4.13-6.06,6.31
			c-0.92,0.96-1.85,1.93-2.76,2.9L43.45,113.85z M33.15,79.37c1.66,1.15,3.03,2.71,4.13,4.73c0.92,1.72,1.74,3.27,2.25,4.96
			c1.19,4.01,2.31,8.1,3.41,12.04c0.38,1.37,0.76,2.75,1.14,4.13c0.27,0.98,0.54,1.96,0.81,2.96c0.33-0.35,0.67-0.7,1-1.05
			c2.08-2.19,4.05-4.25,6.09-6.33c12.87-13.23,24.04-23.43,35.13-32.1c9.67-7.55,19.91-14.31,30.44-20.08
			c2.18-1.2,4.4-2.38,6.62-3.54c-3.92,1.4-7.93,2.91-11.91,4.54c-11.2,4.6-21.62,10.06-30.95,16.22
			c-8.77,5.79-17.24,12.51-25.91,20.55c-0.35,0.32-0.71,0.65-1.23,1.1l-1.85,1.62l-0.51-2.4c-1.17-5.55-2.83-11.3-6.8-16.14
			c-2.09,1.55-4.18,3.1-6.29,4.65C36.88,76.6,35.02,77.98,33.15,79.37z"/>
	</g>
	<g>
		<g>
			<path class="st3" d="M10.77,121.93h3.2v16.95h-3.2V121.93z"/>
			<path class="st3" d="M17.25,126.35h3.15v1.28c0.71-0.6,1.36-1.02,1.94-1.25c0.58-0.24,1.17-0.35,1.78-0.35
				c1.24,0,2.3,0.43,3.16,1.3c0.73,0.74,1.09,1.83,1.09,3.27v8.28h-3.11v-5.49c0-1.5-0.07-2.49-0.2-2.98
				c-0.13-0.49-0.37-0.86-0.7-1.12c-0.33-0.26-0.75-0.39-1.24-0.39c-0.64,0-1.18,0.21-1.64,0.64c-0.46,0.43-0.77,1.01-0.95,1.77
				c-0.09,0.39-0.14,1.24-0.14,2.54v5.03h-3.15V126.35z"/>
			<path class="st3" d="M31.79,121.73h3.15v4.62h1.87v2.71h-1.87v9.83h-3.15v-9.83h-1.61v-2.71h1.61V121.73z"/>
			<path class="st3" d="M51.04,133.52h-10.1c0.15,0.89,0.54,1.6,1.17,2.13c0.63,0.53,1.44,0.79,2.43,0.79
				c1.18,0,2.18-0.41,3.03-1.23l2.65,1.24c-0.66,0.94-1.45,1.63-2.37,2.08c-0.92,0.45-2.02,0.67-3.28,0.67
				c-1.97,0-3.57-0.62-4.8-1.86c-1.24-1.24-1.85-2.79-1.85-4.66c0-1.91,0.62-3.5,1.85-4.76c1.23-1.26,2.78-1.9,4.64-1.9
				c1.97,0,3.58,0.63,4.82,1.9c1.24,1.26,1.85,2.93,1.85,5.01L51.04,133.52z M47.9,131.05c-0.21-0.7-0.62-1.27-1.23-1.71
				c-0.61-0.44-1.32-0.66-2.13-0.66c-0.88,0-1.65,0.25-2.31,0.74c-0.42,0.31-0.8,0.85-1.15,1.62H47.9z"/>
			<path class="st3" d="M52.85,126.35h2.7v1.58c0.29-0.62,0.68-1.09,1.16-1.42c0.48-0.32,1.01-0.48,1.59-0.48
				c0.41,0,0.83,0.11,1.28,0.32l-0.98,2.71c-0.37-0.18-0.67-0.28-0.91-0.28c-0.48,0-0.89,0.3-1.23,0.9c-0.33,0.6-0.5,1.77-0.5,3.53
				l0.01,0.61v5.07h-3.12V126.35z"/>
			<path class="st3" d="M61.14,126.35h3.15v1.28c0.71-0.6,1.36-1.02,1.94-1.25c0.58-0.24,1.17-0.35,1.78-0.35
				c1.24,0,2.3,0.43,3.16,1.3c0.73,0.74,1.09,1.83,1.09,3.27v8.28h-3.11v-5.49c0-1.5-0.07-2.49-0.2-2.98
				c-0.13-0.49-0.37-0.86-0.7-1.12c-0.33-0.26-0.75-0.39-1.24-0.39c-0.64,0-1.18,0.21-1.64,0.64c-0.46,0.43-0.77,1.01-0.95,1.77
				c-0.09,0.39-0.14,1.24-0.14,2.54v5.03h-3.15V126.35z"/>
			<path class="st3" d="M84.55,126.35h3.15v12.53h-3.15v-1.32c-0.61,0.58-1.23,1-1.85,1.26c-0.62,0.26-1.29,0.39-2.01,0.39
				c-1.62,0-3.02-0.63-4.2-1.88c-1.18-1.26-1.77-2.82-1.77-4.68c0-1.94,0.57-3.52,1.71-4.76c1.14-1.24,2.53-1.85,4.17-1.85
				c0.75,0,1.46,0.14,2.12,0.43c0.66,0.28,1.27,0.71,1.83,1.28V126.35z M81.24,128.93c-0.97,0-1.78,0.34-2.42,1.03
				c-0.64,0.69-0.96,1.57-0.96,2.64c0,1.08,0.33,1.97,0.98,2.67c0.65,0.7,1.46,1.05,2.42,1.05c0.99,0,1.81-0.34,2.46-1.03
				c0.65-0.69,0.98-1.59,0.98-2.7c0-1.09-0.33-1.97-0.98-2.65C83.06,129.26,82.23,128.93,81.24,128.93z"/>
			<path class="st3" d="M91.25,121.73h3.15v4.62h1.87v2.71H94.4v9.83h-3.15v-9.83h-1.61v-2.71h1.61V121.73z"/>
			<path class="st3" d="M99.17,121.18c0.55,0,1.02,0.2,1.42,0.6c0.39,0.4,0.59,0.88,0.59,1.45c0,0.56-0.2,1.04-0.59,1.43
				c-0.39,0.4-0.86,0.59-1.4,0.59c-0.56,0-1.04-0.2-1.43-0.6c-0.39-0.4-0.59-0.89-0.59-1.47c0-0.55,0.2-1.03,0.59-1.42
				C98.15,121.38,98.62,121.18,99.17,121.18z M97.6,126.35h3.15v12.53H97.6V126.35z"/>
			<path class="st3" d="M109.49,126.02c1.18,0,2.29,0.3,3.34,0.89c1.04,0.59,1.85,1.39,2.44,2.41c0.58,1.01,0.88,2.11,0.88,3.28
				c0,1.18-0.29,2.29-0.88,3.32c-0.59,1.03-1.39,1.83-2.4,2.41c-1.01,0.58-2.13,0.87-3.35,0.87c-1.8,0-3.33-0.64-4.6-1.92
				c-1.27-1.28-1.91-2.83-1.91-4.66c0-1.96,0.72-3.59,2.15-4.9C106.4,126.59,107.85,126.02,109.49,126.02z M109.54,128.98
				c-0.98,0-1.79,0.34-2.44,1.02c-0.65,0.68-0.98,1.55-0.98,2.61c0,1.09,0.32,1.97,0.96,2.65c0.64,0.68,1.46,1.01,2.44,1.01
				c0.98,0,1.8-0.34,2.46-1.03c0.65-0.68,0.98-1.56,0.98-2.64c0-1.08-0.32-1.95-0.96-2.62
				C111.36,129.32,110.54,128.98,109.54,128.98z"/>
			<path class="st3" d="M118.7,126.35h3.15v1.28c0.71-0.6,1.36-1.02,1.94-1.25c0.58-0.24,1.17-0.35,1.78-0.35
				c1.24,0,2.3,0.43,3.16,1.3c0.73,0.74,1.09,1.83,1.09,3.27v8.28h-3.11v-5.49c0-1.5-0.07-2.49-0.2-2.98
				c-0.13-0.49-0.37-0.86-0.7-1.12c-0.33-0.26-0.75-0.39-1.24-0.39c-0.64,0-1.18,0.21-1.64,0.64c-0.46,0.43-0.77,1.01-0.95,1.77
				c-0.09,0.39-0.14,1.24-0.14,2.54v5.03h-3.15V126.35z"/>
			<path class="st3" d="M142.11,126.35h3.15v12.53h-3.15v-1.32c-0.61,0.58-1.23,1-1.85,1.26c-0.62,0.26-1.29,0.39-2.01,0.39
				c-1.62,0-3.02-0.63-4.2-1.88c-1.18-1.26-1.77-2.82-1.77-4.68c0-1.94,0.57-3.52,1.71-4.76c1.14-1.24,2.53-1.85,4.17-1.85
				c0.75,0,1.46,0.14,2.12,0.43c0.66,0.28,1.27,0.71,1.83,1.28V126.35z M138.81,128.93c-0.97,0-1.78,0.34-2.42,1.03
				c-0.64,0.69-0.96,1.57-0.96,2.64c0,1.08,0.33,1.97,0.98,2.67c0.65,0.7,1.46,1.05,2.42,1.05c0.99,0,1.81-0.34,2.46-1.03
				c0.65-0.69,0.98-1.59,0.98-2.7c0-1.09-0.33-1.97-0.98-2.65C140.63,129.26,139.8,128.93,138.81,128.93z"/>
			<path class="st3" d="M148.09,121.51h3.15v17.37h-3.15V121.51z"/>
			<path class="st3" d="M159.37,121.93h9.37v3.18h-3.09v13.77h-3.27v-13.77h-3.01V121.93z"/>
			<path class="st3" d="M183.16,133.52h-10.1c0.15,0.89,0.54,1.6,1.17,2.13c0.63,0.53,1.44,0.79,2.42,0.79
				c1.18,0,2.19-0.41,3.03-1.23l2.65,1.24c-0.66,0.94-1.45,1.63-2.37,2.08c-0.92,0.45-2.02,0.67-3.28,0.67
				c-1.97,0-3.57-0.62-4.8-1.86c-1.24-1.24-1.85-2.79-1.85-4.66c0-1.91,0.62-3.5,1.85-4.76c1.23-1.26,2.78-1.9,4.64-1.9
				c1.97,0,3.58,0.63,4.82,1.9c1.24,1.26,1.85,2.93,1.85,5.01L183.16,133.52z M180.02,131.05c-0.21-0.7-0.62-1.27-1.23-1.71
				c-0.61-0.44-1.32-0.66-2.13-0.66c-0.88,0-1.65,0.25-2.31,0.74c-0.42,0.31-0.8,0.85-1.15,1.62H180.02z"/>
			<path class="st3" d="M197.98,128.88l-2.62,1.44c-0.49-0.51-0.98-0.87-1.46-1.07c-0.48-0.2-1.04-0.3-1.69-0.3
				c-1.18,0-2.13,0.35-2.85,1.05c-0.73,0.7-1.09,1.6-1.09,2.7c0,1.07,0.35,1.94,1.05,2.61c0.7,0.67,1.62,1.01,2.76,1.01
				c1.41,0,2.5-0.48,3.29-1.44l2.48,1.7c-1.34,1.75-3.24,2.62-5.69,2.62c-2.2,0-3.93-0.65-5.18-1.96c-1.25-1.31-1.87-2.83-1.87-4.59
				c0-1.21,0.3-2.33,0.91-3.35c0.61-1.02,1.45-1.82,2.54-2.41c1.09-0.58,2.3-0.88,3.65-0.88c1.24,0,2.36,0.25,3.35,0.74
				C196.54,127.26,197.35,127.97,197.98,128.88z"/>
			<path class="st3" d="M200.82,121.51h3.12v6.11c0.61-0.53,1.23-0.93,1.85-1.19c0.62-0.27,1.25-0.4,1.89-0.4
				c1.24,0,2.29,0.43,3.15,1.29c0.73,0.75,1.09,1.84,1.09,3.28v8.28h-3.1v-5.5c0-1.45-0.07-2.43-0.21-2.95
				c-0.14-0.51-0.37-0.9-0.71-1.15c-0.33-0.25-0.75-0.38-1.24-0.38c-0.64,0-1.18,0.21-1.64,0.63c-0.46,0.42-0.77,1-0.95,1.73
				c-0.09,0.38-0.14,1.24-0.14,2.58v5.03h-3.12V121.51z"/>
			<path class="st3" d="M214.97,126.35h3.15v1.28c0.71-0.6,1.36-1.02,1.94-1.25c0.58-0.24,1.17-0.35,1.78-0.35
				c1.24,0,2.3,0.43,3.16,1.3c0.73,0.74,1.09,1.83,1.09,3.27v8.28h-3.11v-5.49c0-1.5-0.07-2.49-0.2-2.98
				c-0.13-0.49-0.37-0.86-0.7-1.12c-0.33-0.26-0.75-0.39-1.24-0.39c-0.64,0-1.18,0.21-1.64,0.64c-0.46,0.43-0.77,1.01-0.95,1.77
				c-0.09,0.39-0.14,1.24-0.14,2.54v5.03h-3.15V126.35z"/>
			<path class="st3" d="M235.02,126.02c1.18,0,2.29,0.3,3.34,0.89c1.04,0.59,1.85,1.39,2.44,2.41c0.58,1.01,0.88,2.11,0.88,3.28
				c0,1.18-0.29,2.29-0.88,3.32c-0.59,1.03-1.39,1.83-2.4,2.41c-1.01,0.58-2.13,0.87-3.35,0.87c-1.8,0-3.33-0.64-4.6-1.92
				c-1.27-1.28-1.91-2.83-1.91-4.66c0-1.96,0.72-3.59,2.15-4.9C231.93,126.59,233.38,126.02,235.02,126.02z M235.07,128.98
				c-0.98,0-1.79,0.34-2.44,1.02c-0.65,0.68-0.98,1.55-0.98,2.61c0,1.09,0.32,1.97,0.96,2.65c0.64,0.68,1.46,1.01,2.44,1.01
				c0.98,0,1.8-0.34,2.46-1.03c0.65-0.68,0.98-1.56,0.98-2.64c0-1.08-0.32-1.95-0.96-2.62
				C236.89,129.32,236.07,128.98,235.07,128.98z"/>
			<path class="st3" d="M243.89,121.51h3.15v17.37h-3.15V121.51z"/>
			<path class="st3" d="M255.78,126.02c1.18,0,2.29,0.3,3.34,0.89c1.04,0.59,1.85,1.39,2.44,2.41c0.58,1.01,0.88,2.11,0.88,3.28
				c0,1.18-0.29,2.29-0.88,3.32c-0.59,1.03-1.39,1.83-2.4,2.41c-1.01,0.58-2.13,0.87-3.35,0.87c-1.8,0-3.33-0.64-4.6-1.92
				c-1.27-1.28-1.91-2.83-1.91-4.66c0-1.96,0.72-3.59,2.15-4.9C252.69,126.59,254.14,126.02,255.78,126.02z M255.83,128.98
				c-0.98,0-1.79,0.34-2.44,1.02c-0.65,0.68-0.98,1.55-0.98,2.61c0,1.09,0.32,1.97,0.96,2.65c0.64,0.68,1.46,1.01,2.44,1.01
				c0.98,0,1.8-0.34,2.46-1.03c0.65-0.68,0.98-1.56,0.98-2.64c0-1.08-0.32-1.95-0.96-2.62
				C257.65,129.32,256.83,128.98,255.83,128.98z"/>
			<path class="st3" d="M274.26,126.35h3.13v10.74c0,2.12-0.43,3.68-1.28,4.68c-1.14,1.35-2.87,2.03-5.17,2.03
				c-1.23,0-2.26-0.15-3.1-0.46c-0.84-0.31-1.54-0.76-2.12-1.35c-0.58-0.6-1-1.32-1.28-2.17h3.47c0.31,0.35,0.7,0.62,1.19,0.8
				c0.48,0.18,1.06,0.27,1.72,0.27c0.84,0,1.52-0.13,2.04-0.39c0.51-0.26,0.88-0.6,1.09-1.01c0.21-0.41,0.32-1.13,0.32-2.14
				c-0.55,0.55-1.13,0.95-1.74,1.19c-0.61,0.24-1.29,0.36-2.06,0.36c-1.68,0-3.1-0.61-4.26-1.82c-1.16-1.21-1.74-2.75-1.74-4.61
				c0-1.99,0.61-3.59,1.84-4.79c1.11-1.09,2.44-1.64,3.99-1.64c0.72,0,1.4,0.13,2.05,0.4c0.64,0.26,1.28,0.7,1.93,1.31V126.35z
				 M271,128.96c-0.99,0-1.81,0.33-2.45,1c-0.65,0.66-0.97,1.5-0.97,2.51c0,1.04,0.33,1.9,0.99,2.57c0.66,0.67,1.49,1,2.49,1
				c0.98,0,1.78-0.33,2.41-0.98c0.63-0.65,0.95-1.51,0.95-2.57c0-1.04-0.32-1.89-0.96-2.55C272.82,129.29,272,128.96,271,128.96z"/>
			<path class="st3" d="M281.8,121.18c0.55,0,1.02,0.2,1.42,0.6c0.39,0.4,0.59,0.88,0.59,1.45c0,0.56-0.2,1.04-0.59,1.43
				c-0.39,0.4-0.86,0.59-1.4,0.59c-0.56,0-1.04-0.2-1.43-0.6c-0.39-0.4-0.59-0.89-0.59-1.47c0-0.55,0.2-1.03,0.59-1.42
				C280.77,121.38,281.24,121.18,281.8,121.18z M280.22,126.35h3.15v12.53h-3.15V126.35z"/>
			<path class="st3" d="M298.78,133.52h-10.1c0.15,0.89,0.54,1.6,1.17,2.13c0.63,0.53,1.44,0.79,2.42,0.79
				c1.18,0,2.18-0.41,3.03-1.23l2.65,1.24c-0.66,0.94-1.45,1.63-2.37,2.08c-0.92,0.45-2.02,0.67-3.28,0.67
				c-1.97,0-3.57-0.62-4.8-1.86c-1.24-1.24-1.85-2.79-1.85-4.66c0-1.91,0.62-3.5,1.85-4.76c1.23-1.26,2.78-1.9,4.64-1.9
				c1.97,0,3.58,0.63,4.82,1.9c1.24,1.26,1.85,2.93,1.85,5.01L298.78,133.52z M295.64,131.05c-0.21-0.7-0.62-1.27-1.23-1.71
				c-0.61-0.44-1.32-0.66-2.13-0.66c-0.88,0-1.65,0.25-2.31,0.74c-0.42,0.31-0.8,0.85-1.15,1.62H295.64z"/>
			<path class="st3" d="M309,128.1l-1.95,1.95c-0.79-0.78-1.51-1.18-2.15-1.18c-0.35,0-0.63,0.07-0.83,0.22
				c-0.2,0.15-0.3,0.34-0.3,0.56c0,0.17,0.06,0.32,0.19,0.47c0.13,0.14,0.44,0.34,0.94,0.58l1.15,0.58c1.21,0.6,2.05,1.21,2.5,1.83
				c0.45,0.62,0.68,1.35,0.68,2.19c0,1.11-0.41,2.04-1.23,2.79c-0.82,0.75-1.91,1.12-3.29,1.12c-1.83,0-3.29-0.71-4.38-2.14
				l1.94-2.11c0.37,0.43,0.8,0.78,1.3,1.04c0.5,0.27,0.93,0.4,1.32,0.4c0.41,0,0.75-0.1,1-0.3c0.25-0.2,0.38-0.43,0.38-0.69
				c0-0.48-0.46-0.96-1.37-1.42l-1.06-0.53c-2.03-1.02-3.04-2.3-3.04-3.84c0-0.99,0.38-1.84,1.15-2.54c0.76-0.7,1.74-1.05,2.93-1.05
				c0.81,0,1.58,0.18,2.3,0.54C307.89,126.92,308.5,127.43,309,128.1z"/>
			<path class="st3" d="M78.24,150.25h3.38c1.94,0,3.24,0.08,3.92,0.25c0.97,0.24,1.76,0.73,2.37,1.47
				c0.61,0.74,0.92,1.67,0.92,2.79c0,1.13-0.3,2.06-0.9,2.79c-0.6,0.73-1.42,1.23-2.48,1.48c-0.77,0.18-2.2,0.28-4.31,0.28h-1.21
				v7.88h-1.69V150.25z M79.93,151.9v5.75l2.87,0.03c1.16,0,2.01-0.11,2.55-0.32c0.54-0.21,0.96-0.55,1.27-1.02
				c0.31-0.47,0.46-1,0.46-1.58c0-0.57-0.15-1.09-0.46-1.56c-0.31-0.47-0.71-0.81-1.22-1.01c-0.5-0.2-1.33-0.3-2.47-0.3H79.93z"/>
			<path class="st3" d="M91.34,154.66h1.65v1.83c0.49-0.72,1.01-1.26,1.56-1.62c0.55-0.36,1.11-0.54,1.71-0.54
				c0.45,0,0.92,0.14,1.43,0.43l-0.84,1.36c-0.34-0.15-0.62-0.22-0.85-0.22c-0.54,0-1.06,0.22-1.56,0.66
				c-0.5,0.44-0.88,1.13-1.14,2.06c-0.2,0.71-0.3,2.16-0.3,4.33v4.24h-1.65V154.66z"/>
			<path class="st3" d="M99.6,149.5c0.37,0,0.68,0.13,0.94,0.39c0.26,0.26,0.39,0.58,0.39,0.94c0,0.36-0.13,0.67-0.39,0.93
				c-0.26,0.26-0.57,0.39-0.94,0.39c-0.36,0-0.67-0.13-0.93-0.39c-0.26-0.26-0.39-0.57-0.39-0.93c0-0.37,0.13-0.68,0.39-0.94
				C98.93,149.63,99.24,149.5,99.6,149.5z M98.8,154.66h1.61v12.53H98.8V154.66z"/>
			<path class="st3" d="M102.58,154.66h1.72l4.21,9.14l4.16-9.14h1.73l-5.74,12.53h-0.3L102.58,154.66z"/>
			<path class="st3" d="M129.33,154.66v12.53h-1.59v-2.15c-0.68,0.82-1.43,1.44-2.28,1.85c-0.84,0.41-1.76,0.62-2.76,0.62
				c-1.77,0-3.29-0.64-4.54-1.93c-1.26-1.29-1.88-2.85-1.88-4.69c0-1.8,0.63-3.35,1.9-4.63c1.27-1.28,2.79-1.92,4.57-1.92
				c1.03,0,1.96,0.22,2.79,0.66c0.83,0.44,1.56,1.09,2.19,1.97v-2.3H129.33z M122.89,155.89c-0.9,0-1.73,0.22-2.49,0.66
				c-0.76,0.44-1.36,1.06-1.81,1.86c-0.45,0.8-0.67,1.64-0.67,2.53c0,0.88,0.23,1.73,0.68,2.53c0.45,0.81,1.06,1.43,1.82,1.88
				c0.76,0.45,1.58,0.67,2.46,0.67c0.88,0,1.72-0.22,2.51-0.67c0.79-0.44,1.4-1.05,1.82-1.81c0.43-0.76,0.64-1.61,0.64-2.57
				c0-1.45-0.48-2.66-1.43-3.64C125.46,156.38,124.28,155.89,122.89,155.89z"/>
			<path class="st3" d="M134.37,150h1.61v4.65h2.56v1.39h-2.56v11.14h-1.61v-11.14h-2.2v-1.39h2.2V150z"/>
			<path class="st3" d="M151.51,163.03l1.36,0.71c-0.45,0.88-0.96,1.58-1.55,2.12c-0.58,0.54-1.24,0.95-1.97,1.23
				c-0.73,0.28-1.56,0.42-2.48,0.42c-2.05,0-3.64-0.67-4.8-2.01c-1.15-1.34-1.73-2.86-1.73-4.54c0-1.59,0.49-3.01,1.46-4.25
				c1.24-1.58,2.89-2.37,4.97-2.37c2.14,0,3.84,0.81,5.12,2.43c0.91,1.14,1.37,2.57,1.38,4.29h-11.28c0.03,1.46,0.5,2.65,1.4,3.58
				c0.9,0.93,2.01,1.4,3.33,1.4c0.64,0,1.26-0.11,1.86-0.33c0.6-0.22,1.12-0.52,1.54-0.88
				C150.56,164.45,151.02,163.85,151.51,163.03z M151.51,159.66c-0.22-0.86-0.53-1.55-0.94-2.06c-0.41-0.51-0.96-0.93-1.63-1.24
				c-0.68-0.31-1.39-0.47-2.13-0.47c-1.23,0-2.29,0.4-3.17,1.19c-0.65,0.58-1.13,1.44-1.47,2.59H151.51z"/>
			<path class="st3" d="M163.09,150.25h1.69v15.31h6.52v1.64h-8.21V150.25z"/>
			<path class="st3" d="M174.28,149.5c0.37,0,0.68,0.13,0.94,0.39c0.26,0.26,0.39,0.58,0.39,0.94c0,0.36-0.13,0.67-0.39,0.93
				c-0.26,0.26-0.57,0.39-0.94,0.39c-0.36,0-0.67-0.13-0.93-0.39c-0.26-0.26-0.39-0.57-0.39-0.93c0-0.37,0.13-0.68,0.39-0.94
				C173.61,149.63,173.92,149.5,174.28,149.5z M173.48,154.66h1.61v12.53h-1.61V154.66z"/>
			<path class="st3" d="M178.43,154.66h1.61v2.17c0.56-0.8,1.14-1.38,1.73-1.75c0.82-0.49,1.67-0.74,2.57-0.74
				c0.61,0,1.18,0.12,1.73,0.36c0.55,0.24,0.99,0.55,1.34,0.95c0.35,0.4,0.65,0.96,0.9,1.7c0.54-0.98,1.21-1.73,2.01-2.24
				c0.8-0.51,1.67-0.77,2.6-0.77c0.87,0,1.63,0.22,2.29,0.66c0.66,0.44,1.15,1.05,1.48,1.83c0.32,0.78,0.48,1.96,0.48,3.53v6.84
				h-1.65v-6.84c0-1.34-0.1-2.27-0.29-2.77c-0.19-0.5-0.52-0.91-0.98-1.22c-0.46-0.31-1.02-0.46-1.66-0.46
				c-0.78,0-1.49,0.23-2.14,0.69c-0.65,0.46-1.12,1.08-1.42,1.84c-0.3,0.77-0.45,2.05-0.45,3.85v4.91h-1.61v-6.42
				c0-1.51-0.09-2.54-0.28-3.08c-0.19-0.54-0.52-0.98-0.99-1.3c-0.47-0.33-1.03-0.49-1.67-0.49c-0.75,0-1.44,0.22-2.09,0.67
				c-0.65,0.45-1.13,1.05-1.44,1.81c-0.31,0.76-0.47,1.92-0.47,3.49v5.31h-1.61V154.66z"/>
			<path class="st3" d="M201.13,149.5c0.37,0,0.68,0.13,0.94,0.39c0.26,0.26,0.39,0.58,0.39,0.94c0,0.36-0.13,0.67-0.39,0.93
				c-0.26,0.26-0.57,0.39-0.94,0.39c-0.36,0-0.67-0.13-0.93-0.39c-0.26-0.26-0.39-0.57-0.39-0.93c0-0.37,0.13-0.68,0.39-0.94
				C200.47,149.63,200.78,149.5,201.13,149.5z M200.33,154.66h1.61v12.53h-1.61V154.66z"/>
			<path class="st3" d="M206.7,150h1.61v4.65h2.56v1.39h-2.56v11.14h-1.61v-11.14h-2.2v-1.39h2.2V150z"/>
			<path class="st3" d="M223.85,163.03l1.36,0.71c-0.45,0.88-0.96,1.58-1.55,2.12c-0.58,0.54-1.24,0.95-1.97,1.23
				c-0.73,0.28-1.56,0.42-2.48,0.42c-2.04,0-3.64-0.67-4.8-2.01c-1.15-1.34-1.73-2.86-1.73-4.54c0-1.59,0.49-3.01,1.46-4.25
				c1.24-1.58,2.89-2.37,4.97-2.37c2.14,0,3.84,0.81,5.12,2.43c0.91,1.14,1.37,2.57,1.38,4.29h-11.28c0.03,1.46,0.5,2.65,1.4,3.58
				s2.01,1.4,3.33,1.4c0.64,0,1.26-0.11,1.86-0.33c0.6-0.22,1.12-0.52,1.54-0.88C222.9,164.45,223.36,163.85,223.85,163.03z
				 M223.85,159.66c-0.22-0.86-0.53-1.55-0.94-2.06c-0.41-0.51-0.96-0.93-1.63-1.24c-0.68-0.31-1.39-0.47-2.13-0.47
				c-1.23,0-2.29,0.4-3.17,1.19c-0.65,0.58-1.13,1.44-1.46,2.59H223.85z"/>
			<path class="st3" d="M241.14,149.82v17.37h-1.59v-2.15c-0.68,0.82-1.43,1.44-2.28,1.85c-0.84,0.41-1.76,0.62-2.76,0.62
				c-1.77,0-3.29-0.64-4.54-1.93c-1.26-1.29-1.88-2.85-1.88-4.69c0-1.8,0.63-3.35,1.9-4.63c1.27-1.28,2.79-1.92,4.57-1.92
				c1.03,0,1.96,0.22,2.79,0.66c0.83,0.44,1.56,1.09,2.19,1.97v-7.14H241.14z M234.69,155.89c-0.9,0-1.73,0.22-2.49,0.66
				c-0.76,0.44-1.36,1.06-1.81,1.86c-0.45,0.8-0.67,1.64-0.67,2.53c0,0.88,0.23,1.73,0.68,2.53c0.45,0.81,1.06,1.43,1.82,1.88
				c0.76,0.45,1.58,0.67,2.46,0.67c0.88,0,1.72-0.22,2.51-0.67c0.79-0.44,1.4-1.05,1.82-1.81c0.43-0.76,0.64-1.61,0.64-2.57
				c0-1.45-0.48-2.66-1.43-3.64C237.27,156.38,236.09,155.89,234.69,155.89z"/>
		</g>
	</g>
</g>
</svg>
